<svg id="Vrstva_1" data-name="Vrstva 1" xmlns="http://www.w3.org/2000/svg" xmlns:xlink="http://www.w3.org/1999/xlink" viewBox="0 0 1000 1000"><defs><style>.cls-1,.cls-13,.cls-16,.cls-17,.cls-18,.cls-19{fill:none;}.cls-2{fill:#c1cfe3;}.cls-3{fill:#fff;fill-rule:evenodd;}.cls-4{fill:#d9af91;}.cls-5{fill:#d1a180;}.cls-6{fill:#bd932a;}.cls-7{fill:#ebddd3;}.cls-8{fill:#1f2318;}.cls-9{fill:#c29474;}.cls-10{fill:#0a1930;}.cls-11{clip-path:url(#clip-path);}.cls-12{fill:#e0d3c9;}.cls-13{stroke:#997423;}.cls-13,.cls-16,.cls-17,.cls-18,.cls-19{stroke-miterlimit:10;}.cls-14{fill:#144f60;}.cls-15{fill:#174452;}.cls-16,.cls-17,.cls-18,.cls-19{stroke:#bfb4ac;}.cls-17{stroke-width:0.5px;}.cls-18{stroke-width:0.85px;}.cls-19{stroke-width:0.25px;}</style><clipPath id="clip-path"><path id="SVGID" class="cls-1" d="M621.29,494.53c-3.13-10.11-12.47-19.23-18.47-27.83-7.71-11-20.62-18.89-31.31-26.66-21.25-15.48-47.77-16.8-73.24-16.8-3.21,0-6.41-.12-9.62-.09a104.41,104.41,0,0,0-13.8,1,33,33,0,0,0-5.38,1.13c-1.26.41-3.29,1.42-2.77,3a18.52,18.52,0,0,0,1.14,2.43,30.18,30.18,0,0,1,1.43,2.84,4.2,4.2,0,0,1-.4,3.69,20.88,20.88,0,0,1-2,2.32,19.69,19.69,0,0,1-6.14,3.37,45.89,45.89,0,0,1-13.26,2.65c-20.27,1.08-37.66-10.77-54.28-20.67-15.07-9-26.7-22.48-41.38-32-16.67-10.78-34.22-8.42-52.45-1.85-36.5,13.17-65.14,48-73.1,85.78-3,14.44-2.91,28.53-2.91,43.24,0,14-.17,27.61,1.75,41.49,1.23,8.92,3.54,24.05,9.33,31.3,2.79,3.49,7.16,4.59,11.53,5,1.43.14,2.86.22,4.23.29,13.53.64,28.74-2.16,41.66-6C308.15,587.44,323,578,340,575.35a22.62,22.62,0,0,1,12.77,1.47c-1.79,9.61-3,19.28-4,29-2.21,20.65-5.86,42.39-2.56,63.23,4.62,29.31,22.9,52.59,53.57,55.88,19.8,2.13,39,5.11,59,4.56,32.67-.89,83.68-21.94,68.21-56l3.37-1.61c11.41-5.36,23.6-6.61,28.72-19.65,4.09-10.43,6.37-21.81,9.5-32.54,2.64-9,5.38-18.82,6.7-28.15.89-6.24-.52-12.76,1.83-18.79a28.57,28.57,0,0,0,2.49-10.66,13.65,13.65,0,0,1,5.64-10.35c6-4.21,13.69-4.72,20.58-5.45A23.81,23.81,0,0,0,620,540c5-4.68,8-11.47,9-19C630.27,510.41,624.24,504.05,621.29,494.53Z"/></clipPath></defs><path class="cls-2" d="M60.13,611.28c1.09-6.4,2.7-12.89,3.58-18.47,5.47-34.54,22.23-67.73,40-97.47,14.82-24.79,28.92-52.61,49-73.66,17.48-18.32,40.23-28.87,59.84-44.42,10.47-8.31,19.11-19,29.45-27.42,22.36-18.26,46.89-32,76.06-32,34.84-.06,63.64-6.65,95.4-21.51,110.73-51.79,257.36-116.68,371.25-39,28.09,19.17,57.06,35,57.36,71.94.17,21.78.8,42.25,11.18,62.13,6.42,12.3,18.72,19.74,28.91,28.45,4.86,4.16,17.48,9.92,20.41,14.73,7.41,12.18-.64,39.55-3.25,52.09-9.28,44.57-42.75,75.72-56.61,118-15.14,46.2-3.84,97.92-33.13,139.81-24.35,34.82-74.53,52.84-113.14,66.53-22.84,8.1-46.37,11.86-70.62,12.22-35.47.52-65.34,5.78-99.59,15.31-77.82,21.63-155.73,57.36-237.92,53.71-39.86-1.77-71-12.27-90.14-50a405.78,405.78,0,0,1-29.24-78.09c-6.81-26.21-3.14-49.55-1.29-76,1.1-15.72.59-42.78-14.25-52.85-21.78-14.79-50.22,7-73.45,7C57.92,642.2,57.46,627,60.13,611.28Z"/><path class="cls-3" d="M796.3,310.91c-2.56-4-7.29-1.51-10.2,1-3.46,3-6.38,9.4-1.11,12,5,2.48,9-2.18,11.11-6.24,1.24-2.34,1.73-4,.43-6.38A3.64,3.64,0,0,0,796.3,310.91Z"/><path class="cls-3" d="M954.79,589.33a5.52,5.52,0,0,0-1.22-.32c-5.3-.65-3.7,8.07.21,8.84,2.12.41,3.75-1.75,4.13-3.61C958.38,592,956.89,590.11,954.79,589.33Z"/><path class="cls-4" d="M320.11,260.3c6.78,8.31-3,18,1,27.32,1.71,4,4.46,7.61,5.88,11.73a36,36,0,0,1,1.83,13.93c-.32,7.22,2.64,12.62,7.87,17.59,2.5,2.38,8.51,4.07,9.46,6.76.6,1.72-.3,5.92-.3,7.93,0,7.87.41,16.55-2.19,24.08C340,380.25,331.23,388.38,327,398.78a37.09,37.09,0,0,0-2.72,13.91c0,3.12.45,6.36,2.18,8.95a18.49,18.49,0,0,0,6.06,5.14,105.67,105.67,0,0,0,28.29,11.59c6.88,1.76,16,1.1,22.44,4,6.06,2.71,8.5,9.81,13.56,13.88,5.45,4.4,12.1,6.1,19,6.34,11.05.38,22.6-1.18,33.62-2.12,7.48-.64,19.07-1.55,23.9-8.48,5.3-7.61-1.08-14.21-5-20.55-6.34-10.4-9.2-27.39-.25-37.29,6.44-7.12,12.36-9.81,20.8-13.83,6.44-3.06,10.19-6.64,14.67-12,3-3.56,6.1-6.94,8-11.29,3.34-7.48,3.52-16.42,7.1-23.58,2.3-4.6,4.93-8.22,6.54-13.32,2.09-6.63,3.33-13.57,5.61-20.12,3.57-10.3,2.42-18.32,0-28.95-1.93-8.5-4.86-16.86-4.39-25.7.45-8.33,4.38-16.43-.09-24.49-1.43-2.58-4.2-4-6.29-6a28,28,0,0,1-5.12-6.35,33.08,33.08,0,0,1-3.07-9.46c-1.17-5.44-1.31-11.13-2.64-16.51-1.8-7.27-4.07-15.63-8.49-21.82-11.42-16-29.71-31.41-48.5-37.63-38.09-12.62-84.17,22.72-101.14,54.48a222.49,222.49,0,0,0-10.56,23.15c-4.41,11.13-10.29,22-13.5,33.53-.88,3.13-1,6.72-2,9.77-1.2,3.64-3.41,6.75-5,10.22-.7,1.48.13,4.25.78,5.74C320.5,260.45,320.38,260.51,320.11,260.3Z"/><path class="cls-5" d="M344.45,320.19a24.58,24.58,0,0,1-5.27-3.6c-1.19-1.06-2.47-3.19-4.22-3.34-3.79-.34-2.95,8.09-3.33,10.5,0,.22-.09.44-.13.66a28.82,28.82,0,0,0,5.23,6.46c2.5,2.38,8.51,4.07,9.46,6.76.6,1.72-.3,5.92-.3,7.93,0,7.87.41,16.55-2.19,24.08-2.33,6.73-6.71,12.46-10.69,18.41A43.58,43.58,0,0,0,348.2,360c.71-6.11.11-12.35,1.24-18.4.56-2.93,1.6-5.91,3.79-7.92s5.39-2.81,8.34-3.61a79.56,79.56,0,0,0,8.48-2.37c1.9-.77,2.73-2.73,3-4.64a18.71,18.71,0,0,0,.16-3.08c0-1.2-.65-2.22-.82-3.41.12,4.78-5.54,7.58-9.51,8.34-3.23.62-6.15-.58-9.22-1.44A49.62,49.62,0,0,1,344.45,320.19Z"/><path class="cls-6" d="M499.82,228a3.16,3.16,0,0,1-.66-2.32,7.94,7.94,0,0,1,3.52-5.86,17.36,17.36,0,0,1,6.54-2.57c4.57-1,9.66-1.1,13.53,1.5a22.25,22.25,0,0,1,4.16,4c3.51,4.05,3.06,10.69.69,15.39-.86-2.84.41-5.87-.38-8.76s-2.16-3.78-4.91-4.86c-3.53-1.38-8.24-.44-11.75.5-2.45.66-4.58,2.1-7,2.85C502.43,228.2,500.82,229.07,499.82,228Z"/><path class="cls-6" d="M387.25,112.14c12-3.32,24.52-4.27,37-4.6,11.57-.31,23.41.07,34.59,3.32a52.7,52.7,0,0,1,15.27,7.07c5.09,3.52,8,9.44,12.32,13.88,3.21,3.32,6.74,6.33,9.81,9.78s5.7,7.45,6.68,12,.08,9.61-3.13,12.93a21.84,21.84,0,0,1-5.57,3.81Q490.63,172.2,487,174c-1.83.91-6.18,4.08-8.17,3.92-3.07-.26.17-2.51,1.16-3.64a25.68,25.68,0,0,0,4.14-6.41c-16.73,11.41-40.65,11-57-1-2-1.45-4-3.1-6.39-3.39a14.78,14.78,0,0,0-4.93.62c-7.81,1.75-12.56-.48-19.73-1.63-7.48-1.19-16.7,2-23.48,4.94a4.93,4.93,0,0,0-2.77,2.12,4.81,4.81,0,0,0-.1,3c3.17,16.81,22.47,27.87,18.59,46-1.92,8.94-9.94,15.51-12.38,24.33-2.1,7.6.23,15.66,2.89,23.08q3.57,9.93,7.92,19.54A11,11,0,0,1,376,282.17a11.58,11.58,0,0,1,3,12.48L357.44,268c-5.19-6.43-12.08-13.55-20.21-12.08-7.66,1.39-11.73,9.62-14.63,16.84a234.18,234.18,0,0,1-19.42-48.29c-3.52-12.68-6-26.14-2.91-38.94,3-12.57,11-23.36,20-32.67,4.65-4.84,10-9.53,16.36-12,2.65-1,6.21-.87,8.45-2.59,1.81-1.4,2.91-4.2,4.68-5.86C360.06,122.78,373.71,115.89,387.25,112.14Z"/><path class="cls-6" d="M326.61,298.93c.14,4.21,1.8,8,2,12.19.17,3.64-.82,8.37,1.36,11.51.08-.14.27-.33.38-.5,1.06,2.45,1.16,5.52,2.42,7.85.91,1.68,3,1.69,4.6,3.06s3.39,2.93,4.94,4.47a20.88,20.88,0,0,1,3.82,5.36c1-4.18-.45-7-.44-10.3a40.43,40.43,0,0,0-1-9.83c-.94-3.42-3.83-4.82-5.89-7.42a52.69,52.69,0,0,0-3.41-4.39c-2.94-3-4-6.83-6.65-10-.72-.87-1.76-1.62-2.1-2.67C326.62,298.38,326.6,298.81,326.61,298.93Z"/><path class="cls-6" d="M532.47,298.77c-.45.12-.79.55-1.15.81-5.34-1.65-3.3,11.56-7.12,11.54a1.83,1.83,0,0,1-1.65-.9,3.6,3.6,0,0,1-.12-1.82c.38-6.18-3.29-6.4-7.79-8.9-3.11-1.73-5.66-3.91-9.22-4-3.88-.14-8.75,1.08-12.95,1.26-9.15.37-16.32-1.79-24.1,4.42-3.64,2.9-7.83,5.08-11.48,7.72-4.61,3.34-7.26,8.47-9.83,13.4-1.59,3-4.63,12-9.59,8.64-3-2-4.62-8.65-6.15-11.77-1.86-3.78-3.93-7.53-7.23-10.26-8.34-6.89-20.94-3.81-29.09-11.64-4.92-4.74-5.4-11.62-13.31-13.16a9.69,9.69,0,0,0-5.29-.06c-.4.12-4.9,1.6-4.9,1.64a141.07,141.07,0,0,0,2.71,14.26c.85,4.15,3,6.88,4.26,10.82,2.56,8.22,1.23,17.52.87,25.95-.47,10.64,1.61,19.39,8.75,27.47,5.32,6,10.79,9.54,17.6,13.69,3.47,2.11,7.47,2.92,10.61,5.58s4.91,6.4,7.72,9.26c3,3.07,6.83,5.88,10.12,8.7,6,5.12,12.87,9.79,20.71,10.44,7.46.62,14.71-2.49,21.32-6a158.71,158.71,0,0,0,17.71-10.93c5.1-3.63,9.7-4.12,15.14-6.79,9.93-4.87,10.4-13.89,11.12-23.72.52-6.92,1.5-13.76,2.45-20.59.15-1.09-.2-2.31,0-3.38.55-2.76,2.42-4.62,3.2-7.2,1.16-3.88.2-8.22,1.79-12.3a81.51,81.51,0,0,0,4-12.23C532.33,305.64,534.43,301.73,532.47,298.77Zm-18.21,27.86-.06,2.46c-.08,3.61-.29,7.57-2.74,10.23-2.7,2.95-7.23,3.28-11.2,2.76s-8-1.67-11.91-.95-7.19,3.17-10.39,5.5c-2.65,1.93-5.83,3.91-9,3a10.08,10.08,0,0,1-3.17-1.79c-3.64-2.73-6.85-3.25-8.89-7.75-1.43-3.15-2.74-8.15-1.24-11.5,5.77-12.84,19-15.52,31-19.32,7.07-2.23,14.52-3.93,21.88-3,2,.26,4.3.89,5.33,2.68a7.51,7.51,0,0,1,.64,4Z"/><path class="cls-5" d="M508.5,287.63c.78,4,4.9,5.16,7.42,7.76,1.12,1.16,2.48,2.23,3.52,3.42.62.69.88,1.68,1.8,2.11.81-1.34-1.25-3.71-1.91-4.92-1.3-2.38-3.33-3.59-5.13-5.47C513.41,289.7,508.89,283.6,508.5,287.63Z"/><path class="cls-6" d="M474.2,229.1a1.27,1.27,0,0,0,.1-.78,2.67,2.67,0,0,0-1.21-1.51l-4-2.95a17.14,17.14,0,0,0-4.24-2.55,13.43,13.43,0,0,0-4.81-.6c-4.88.12-9.65,1.39-14.35,2.7-7.74,2.15-15.56,4.48-22.57,8.48a39.62,39.62,0,0,0-9.41,7.17c-1.53,1.65-3.79,2.63-5.05,4.53-1.05,1.55-1.58,4.68,1.27,4.63a6.16,6.16,0,0,0,3.32-1.56,75.78,75.78,0,0,1,39.41-14.46c6.39-.45,12.89-.09,19.12-1.58A3.54,3.54,0,0,0,474.2,229.1Z"/><path class="cls-7" d="M441.12,251.2l2.81,0a29.21,29.21,0,0,0,6.61-.41,9.88,9.88,0,0,0,5.66-3.2c1-1.19,1.53-2.9.8-4.24-.83-1.56-2.89-1.88-4.65-2-5-.35-11.13-.7-15.47,2.23a3.67,3.67,0,0,0-1.66,4.36C436,250.76,438.57,251.16,441.12,251.2Z"/><path class="cls-7" d="M516.05,235.41a2,2,0,0,1,1.7.27,4.85,4.85,0,0,1,2.61,2.54,3.81,3.81,0,0,1-.68,3.37,8.31,8.31,0,0,1-2.71,2.18,12.16,12.16,0,0,1-4.81,1.66,6,6,0,0,1-4.71-1.57,3.3,3.3,0,0,1-1-1.76c-.23-1.32.59-2.56,1.38-3.63C509.71,235.93,513,235.33,516.05,235.41Z"/><path class="cls-8" d="M451.46,252.29a4.63,4.63,0,0,0,1.07-3.79,7.93,7.93,0,0,0-1.71-3.65c-3-3.74-9.62-1.29-9.74,3.45S448.28,255.67,451.46,252.29Z"/><path class="cls-8" d="M509.48,243v-.53a2.07,2.07,0,0,1,0-.5,2.24,2.24,0,0,1,.22-.5,5.41,5.41,0,0,1,4.58-2.89,3.85,3.85,0,0,1,1.93.33,3.46,3.46,0,0,1,1.81,2.9,5.8,5.8,0,0,1-1,3.39,3.68,3.68,0,0,1-1,1.13,3.93,3.93,0,0,1-2.55.52,5.32,5.32,0,0,1-3.19-1.09A3.07,3.07,0,0,1,509.48,243Z"/><path class="cls-9" d="M499.53,251a43.39,43.39,0,0,1,3.36,8.59c.84,3,1.53,6,2.31,8.89A54.34,54.34,0,0,0,508,277c.31.68.64,1.34,1,2a23.7,23.7,0,0,1,1.07,2.14,6.79,6.79,0,0,1,.12,5.31,8.41,8.41,0,0,1-3.4,4.06,12.16,12.16,0,0,1-4.86,1.71,16.37,16.37,0,0,1-2.52.13,13.41,13.41,0,0,1-2.57-.31c-.86-.22-1.57-.48-2.17-.62a3,3,0,0,0-1.57,0,8.72,8.72,0,0,0-1.85.67,23.06,23.06,0,0,1-2.23,1,10.15,10.15,0,0,1-5.12.33,9.66,9.66,0,0,1-2.4-.79,5.32,5.32,0,0,1-2.08-1.65,3.56,3.56,0,0,1-.63-2.57,6,6,0,0,1,.84-2.27l.28.12a6.3,6.3,0,0,0-.24,2.17,2.6,2.6,0,0,0,.8,1.68,3.86,3.86,0,0,0,1.68.88,8.73,8.73,0,0,0,2,.35,8.6,8.6,0,0,0,3.91-.71,30.2,30.2,0,0,1,4.28-2.08,6.74,6.74,0,0,1,1.48-.23,6.4,6.4,0,0,1,1.49.14c.9.19,1.62.47,2.25.61a11.2,11.2,0,0,0,2,.26,14.16,14.16,0,0,0,2.06,0,9.29,9.29,0,0,0,3.82-1.05,5.8,5.8,0,0,0,2.55-2.7,4.63,4.63,0,0,0,.42-1.77,4.74,4.74,0,0,0-.34-1.84c-.23-.64-.56-1.3-.89-2s-.64-1.44-.93-2.17a56.76,56.76,0,0,1-2.5-9c-.6-3-1.09-6-1.74-9a46.79,46.79,0,0,0-2.73-8.68Z"/><path class="cls-10" d="M621.29,494.53c-3.13-10.11-12.47-19.23-18.47-27.83-7.71-11-20.62-18.89-31.31-26.66-21.25-15.48-47.77-16.8-73.24-16.8-3.21,0-6.41-.12-9.62-.09a104.41,104.41,0,0,0-13.8,1,33,33,0,0,0-5.38,1.13c-1.26.41-3.29,1.42-2.77,3a18.52,18.52,0,0,0,1.14,2.43,30.18,30.18,0,0,1,1.43,2.84,4.2,4.2,0,0,1-.4,3.69,20.88,20.88,0,0,1-2,2.32,19.69,19.69,0,0,1-6.14,3.37,45.89,45.89,0,0,1-13.26,2.65c-20.27,1.08-37.66-10.77-54.28-20.67-15.07-9-26.7-22.48-41.38-32-16.67-10.78-34.22-8.42-52.45-1.85-36.5,13.17-65.14,48-73.1,85.78-3,14.44-2.91,28.53-2.91,43.24,0,14-.17,27.61,1.75,41.49,1.23,8.92,3.54,24.05,9.33,31.3,2.79,3.49,7.16,4.59,11.53,5,1.43.14,2.86.22,4.23.29,13.53.64,28.74-2.16,41.66-6C308.15,587.44,323,578,340,575.35a22.62,22.62,0,0,1,12.77,1.47c-1.79,9.61-3,19.28-4,29-2.21,20.65-5.86,42.39-2.56,63.23,4.62,29.31,22.9,52.59,53.57,55.88,19.8,2.13,39,5.11,59,4.56,32.67-.89,83.68-21.94,68.21-56l3.37-1.61c11.41-5.36,23.6-6.61,28.72-19.65,4.09-10.43,6.37-21.81,9.5-32.54,2.64-9,5.38-18.82,6.7-28.15.89-6.24-.52-12.76,1.83-18.79a28.57,28.57,0,0,0,2.49-10.66,13.65,13.65,0,0,1,5.64-10.35c6-4.21,13.69-4.72,20.58-5.45A23.81,23.81,0,0,0,620,540c5-4.68,8-11.47,9-19C630.27,510.41,624.24,504.05,621.29,494.53Z"/><g class="cls-11"><path class="cls-3" d="M413.39,720.1c1.22-3-2-4.66-4.57-5.31-3-.76-7.76.14-7.15,4.12.57,3.75,4.74,4.15,7.86,3.75,1.79-.23,2.91-.61,3.73-2.27C413.31,720.29,413.35,720.2,413.39,720.1Z"/><path class="cls-3" d="M357.32,592.11,357,592c-1.57-.6-2.29-.68-3.7.72a3.48,3.48,0,0,0-.16,3.34c1.37,2.12,5.36,1.53,6.15-.91C359.82,593.41,358.74,592.67,357.32,592.11Z"/><path class="cls-3" d="M558.79,658.26a3,3,0,0,0-.3-.8c-1.72-3.22-6,1.11-4.85,3.59.6,1.35,2.45,1.41,3.64.89A3,3,0,0,0,558.79,658.26Z"/><path class="cls-3" d="M225.34,482.69c-.42-.79-.92-.81-1.77-.83-1.56-.05-2,.67-2.58,2a2.8,2.8,0,0,0,.27,3.23c.74.79,2.55.88,3.54.57a1.94,1.94,0,0,0,.94-.6C226.68,486,226,483.84,225.34,482.69Z"/><path class="cls-3" d="M412.57,513.42c-2.13,2.34,1.82,6.25,3.9,4.26C419.42,514.86,414.88,510.88,412.57,513.42Z"/><path class="cls-3" d="M399.53,450.15a1.75,1.75,0,0,0-.52-.23c-2.07-.51-4,2.46-2.62,4.13a2.7,2.7,0,0,0,2.57,1C400.63,454.48,401,451.15,399.53,450.15Z"/><path class="cls-3" d="M480.94,709.09a2.43,2.43,0,0,0-1.52-1c-3.92-.75-4.39,6.15-.25,6.44C481.86,714.72,482.31,711,480.94,709.09Z"/><path class="cls-3" d="M362.68,514.57c-.48-.92-1.22-1.67-2.16-.85a3.63,3.63,0,0,0-1.11,1.49,1.41,1.41,0,0,0,0,.95c.21.63.52,1.64,1.21,1.9a2.32,2.32,0,0,0,2.28-.68A2.79,2.79,0,0,0,362.68,514.57Z"/><path class="cls-3" d="M468,730.4c-1,.12-2.69,2.05-2.84,3a1.15,1.15,0,0,0,.27.84,3.59,3.59,0,0,0,2.13,1.21c1.4.33,3,.13,3.76-.71C473.1,732.73,470.2,730.13,468,730.4Z"/><path class="cls-3" d="M509.47,554.73c-.56-1.22-2.59-2.16-3.29-.59l-.06.14c-.46,1.25.58,4.17,2.23,3.7C509.56,557.62,510,555.77,509.47,554.73Z"/><path class="cls-3" d="M504.34,619.43a3.94,3.94,0,0,0-.94-1.44l-.07,0c-1.5-1-2.93.47-2.58,2,.29,1.28,2.76,3,3.75,1.31A2.36,2.36,0,0,0,504.34,619.43Z"/><path class="cls-3" d="M306.58,463.32a.79.79,0,0,0-.1.4c0,1.65,2.11,2.9,3.22,1.44C311.29,463.06,307.51,461.28,306.58,463.32Z"/><path class="cls-3" d="M554.08,449a.67.67,0,0,0-.76,0,1.41,1.41,0,0,0-.2,1.42.54.54,0,0,0,.19.25,1,1,0,0,0,1.11-.06C555.16,450.14,554.75,449.32,554.08,449Z"/><path class="cls-3" d="M546.91,651.11l0,0c-1.35-1.54-4-.17-3.81,1.84.14,1.64,2,2.84,3.3,1.53a3.44,3.44,0,0,0,.88-1.8A1.9,1.9,0,0,0,546.91,651.11Z"/><path class="cls-3" d="M328.24,302.27a1.26,1.26,0,0,0-1.13.81s0,.09,0,.12c0,.33.38,1,.73,1.07s.85-.42.95-.79S328.74,302.37,328.24,302.27Z"/><path class="cls-3" d="M334.62,401.66c-.29-.47-1.07-.27-1.29.19a.61.61,0,0,0-.06.25c0,.42.17,1,.64,1.13s1,0,1.14-.4S334.8,402,334.62,401.66Z"/><path class="cls-3" d="M277.31,332.83l-.05,0a1.82,1.82,0,0,0-1.36-.36c-.6.24-.65,1.39-.42,1.86C276.1,335.59,278.32,333.85,277.31,332.83Z"/><path class="cls-3" d="M511.31,494.21c-.34-.14-1-.12-1.14.29a3.66,3.66,0,0,0-.1,1.28.75.75,0,0,0,.61.84,1.23,1.23,0,0,0,.88-.42l.14-.15A1.08,1.08,0,0,0,511.31,494.21Z"/><path class="cls-3" d="M434.89,574c-.36-.43-1.43-.28-1.56.32s.39.75.81.86a1.88,1.88,0,0,0,.31,0,.73.73,0,0,0,.74-.36A1,1,0,0,0,434.89,574Z"/><path class="cls-3" d="M462.4,409.49c-.53-1.1-3-1.38-4.08-.58a1.22,1.22,0,0,0-.44,1.41c.18.65,1.56,1.5,2.15,1.68C461.23,412.38,463,410.76,462.4,409.49Z"/><path class="cls-3" d="M515.25,427.89c-.7-.88-2.2-1.37-2.81-.37a4.17,4.17,0,0,0-.66,1.84c.05.88,1.91,1.63,2.65,1.29a2.73,2.73,0,0,0,1.1-1.45A1.31,1.31,0,0,0,515.25,427.89Z"/><path class="cls-3" d="M381.37,658.52a1.67,1.67,0,0,0-1-.28c-.45.22-.19.85.07,1.09s1-.25,1-.7A.2.2,0,0,0,381.37,658.52Z"/><path class="cls-3" d="M318.16,615.39a1.53,1.53,0,0,0-.8-1.15,1.15,1.15,0,0,0-1.17.83,1.19,1.19,0,0,0,.75,1.2,1.32,1.32,0,0,0,1.21-.8A.19.19,0,0,0,318.16,615.39Z"/><path class="cls-3" d="M384.69,698.42c-.29-.28-.66-.13-1,.05a.8.8,0,0,0-.37.54,1,1,0,0,0,.65,1.15c.39.09.9-.32,1.06-.66A1.19,1.19,0,0,0,384.69,698.42Z"/><path class="cls-3" d="M398.28,689.37c-1.44-1.13-4.84,1-3,2.19,1.19.77,3.83-.41,3.43-1.62A1.37,1.37,0,0,0,398.28,689.37Z"/><path class="cls-3" d="M404.67,688.9c-.37-1.21-2.45-1-3.36-.45a1.26,1.26,0,0,0-.74,1.13,1,1,0,0,0,.58.66C402.32,690.84,405.45,691.47,404.67,688.9Z"/><path class="cls-3" d="M447.92,651.36a1.39,1.39,0,0,0-2.29.53c-.09.4.41,1,.81,1.12l.15,0C447.25,653,448.6,652.09,447.92,651.36Z"/><path class="cls-3" d="M306.38,540.71a1,1,0,0,0-1.31-.41c-.43.26-.38,1.08-.08,1.41a1.06,1.06,0,0,0,1.27.35A.92.92,0,0,0,306.38,540.71Z"/><path class="cls-3" d="M472.86,672.08l0,0c-.32-.46-1.64-.51-1.33.26.2.48.86,1.35,1.31.68A.7.7,0,0,0,472.86,672.08Z"/><path class="cls-3" d="M374.91,373.92a.4.4,0,0,0-.47.05,1.35,1.35,0,0,0-.34.47.38.38,0,0,0,0,.48c.12.15.34.15.51.2a.46.46,0,0,0,.5-.08.53.53,0,0,0,.16-.54A1.24,1.24,0,0,0,374.91,373.92Z"/><path class="cls-3" d="M617.91,627.25c-.68-.61-1.74.93-.5,1.1a.44.44,0,0,0,.35-.08A.62.62,0,0,0,618,628,.68.68,0,0,0,617.91,627.25Z"/><path class="cls-3" d="M428.83,529c-.92-1.33-3.56.25-2.12,1.76C427.84,532,429.66,530.25,428.83,529Z"/><path class="cls-3" d="M424.66,624.15c-.92-.33-1.28,1.18-.55,1.62.3.17.62-.07.85-.24a.74.74,0,0,0,.3-.36A1,1,0,0,0,424.66,624.15Z"/><path class="cls-3" d="M582.42,481.16a2.05,2.05,0,0,0-1.1,2,1.46,1.46,0,0,0,.25.75c.69.93,2.3.63,3.18.19a1.62,1.62,0,0,0,1-1C586,481.57,583.58,480.74,582.42,481.16Z"/><path class="cls-3" d="M547.18,598.16c-.54,0-1.84.38-1.78,1,.11,1,2.05,1.6,2.67.81a1.05,1.05,0,0,0,.22-.55A1.17,1.17,0,0,0,547.18,598.16Z"/><path class="cls-3" d="M267,416.21a.54.54,0,0,0-.48.45c-.11.35,0,.79.24.9s.77-.22.87-.48A.67.67,0,0,0,267,416.21Z"/><path class="cls-3" d="M451.61,483.65a1.06,1.06,0,1,0,0,.09S451.61,483.68,451.61,483.65Z"/><path class="cls-3" d="M263.83,528.09a1.08,1.08,0,0,0-1.16-.29c-.34.14-.45.64-.43,1s.49.48.8.51a.77.77,0,0,0,.49-.13A.81.81,0,0,0,263.83,528.09Z"/></g><path class="cls-7" d="M489.82,717.92c7.53-9.49,12.62-21.54,18.66-32.42,15.71-28.29,23.35-61.21,28.21-93,3.82-25,1.88-49.24,1.89-74.31,0-9.15-.35-18.28.74-27.37.54-4.52.3-11.64,3-15.27,6.26,4.71,10.23,12.1,17,16.45,9,5.78,21,8.11,30.87,12,8,3.14,16.07,6.22,24.11,9.08,8.62,3.06,11.5,3,19.37-2.94,10.42-7.91,19.08-17.12,27.38-27.1,5.24-6.3,7.55-9.93,15-6.27,11.38,5.63,21,14,32.41,19.62,8.91,4.4,16.29,10.19,23.6,16.8,5.66-4.38,10.69-13,14.07-19.09,6-10.73,14.28-20.72,19.05-32,15.09,6.94,29.3,26.81,48.58,19,.63,3.91-1.77,8-3.09,11.47a271,271,0,0,1-14.74,33.42c-15.09,28-35.33,52.5-54.84,77.47-8.18,10.48-20.17,18.92-26.21,30.74-4.16,8.13-9.91,15.28-16,22.06-2.94,3.28-5.82,6-8.24,9.68-2.59,4-5,8-7.7,11.93-5.3,7.76-7.81,17.72-11.68,26.3-3.23,7.14-7.36,13.85-10.36,21.09-1.86,4.47-4,9-7.73,12.31-2.85,2.54-4.46,1.81-5.12-1.73-.44-2.4-.84-4.79-1.4-7.19s-2.08-5.77-4.84-6.45c-3.11-.76-6.89,4-8.57,5.94a161.27,161.27,0,0,0-17.39,23.21c-2.75,4.62-7,8.19-8.22,13.59-1.07,4.62-6.54,8.66-11.05,5.05-3.43-2.75-4.6-6.32-9-8.46-6.18-3-15.8-.89-21.68,2.25-3.27,1.75-6.77,3.29-9.46,5.91-1.94,1.89-4,3.52-5.47,5.79-.53.81-1.06,2.08-2,2.56-1.09.58-2.84-.16-4-.37-3.23-.58-6.46-1.24-9.68-1.91-16.48-3.41-36.49-12.63-49.89-22.54-5.62-4.15-14.48-9.11-13.86-16.68C472.26,727.93,481.88,717.33,489.82,717.92Z"/><path class="cls-12" d="M620.47,530.62c.31,3.53-1.41,12.11-2,16.94-1.4,11-2.14,22-3.78,32.91-3.09,20.6-6.18,41.68-10.55,62.06-4.1,19.13-11.32,36-17.94,54-4.42,12-11.74,24.25-17,36.41-2.14,4.9-4,9.92-6,14.86-1,2.46-2.1,4.9-3.3,7.28s-2.72,4.63-4,7c-.4.73-.72,1.52-1.17,2.23-.7,1.07-1.28,2.19-2,3.24-1.07,1.54-2.26,3.06-3.23,4.66-.34.57-1.29,2.8-.78,3.41.84,1,2-1.14,2.33-1.66a21.75,21.75,0,0,1,3.3-3.55c1.23-1.19,2.28-2.49,3.9-3.15,1.77-.73,3.31-1.84,5.05-2.63,4.71-2.11,6-2.06,8.46-6.66,4-7.41,6-15.71,9.79-23.23,5-9.85,10.18-19.28,13.86-29.73,4.21-11.93,8.52-23.93,13.2-35.68,5.58-14,13.4-25.21,16.6-40.17,5.94-27.84,20-54.44,29.41-81.26,5.94-17,9.27-34.84,13.84-52.2,1.34-5.08,1.1-9.74,1.37-14.88-12.18,7.79-21.7,23.56-30.92,34.58C634.65,520.35,621.62,525.86,620.47,530.62Z"/><path class="cls-12" d="M732.62,519.05C716,566.1,637.76,687.28,621.13,734.33c-1,2.88-2,6.29-.25,8.81,6-16.8,42.94-81.51,48.88-98.3,4.77-13.48,36.42-59.58,42.19-72.66C717.06,560.58,730.68,546,737,535s9.1-11.91,16.14-22.47c3.19-4.77,6.15-10.18,10.16-14.3,1.77-1.82,2.08-4.52,2.61-6.91.71-3.21,1.27-6.46,1.66-9.73q.38-3.13.55-6.29c.06-1.05.1-2.1.13-3.15,0-.58-.31-2.76,0-3.16a167.93,167.93,0,0,0-20.58,31.8c-3.59,7.21-7.43,15.43-15,18.08Z"/><path class="cls-4" d="M636.7,699.33c-2.7,5.06-5.69,10-8.69,14.83-3.29,5.31-7.46,11.34-12.66,14.89-2.67,1.83-5.39,3.58-7.92,5.52-5.2,4-11.45,5.6-17.69,7.71-6.93,2.33-14,4.36-21,6.17-14,3.59-28.3,6.3-42.62,8.52-61.79,9.56-120.12,7.9-182.17,2.76-25.83-2.15-39.84-19.83-51.82-41.75-8.3-15.16-15.06-31.26-23.23-46.61C257.5,650,250.6,622.58,247.35,598c1.44.14,2.87.22,4.24.29,13.52.64,28.73-2.16,41.65-6,16.31-4.85,31.21-14.25,48.2-16.94a22.53,22.53,0,0,1,15.9,3.09c.93,4,1.52,8.59,2.7,11.81,2.29,6.23,5,12.29,6.7,18.71,5.09,19.48,9.38,37.48,12.26,57.4a237.63,237.63,0,0,1,2.66,34.73c0,4.18-1.56,8.73-.57,12.88,1.34,5.61,9.21.75,13.24.35,6.61-.65,13.18-1.18,19.83-1.92,8.5-.95,17.17-2.72,25.71-2.69,11.2,0,21.81.43,32.87,2.46,13.41,2.46,26.49,7.6,40,9.61,4.26.63,8.46,1.81,12.8,1.93s9.1-2.64,12.82-4.92c5.74-3.52,9.6-9.54,12.11-15.64,1.58-3.84,2.42-8.2,3.47-12.21,1.49-5.7,2-13.12,6.45-17.43,1.65-1.59,2.36-.59,2.8,1.51A68.71,68.71,0,0,1,564.89,689c0,1.68-.2,4.6,1,6,1,1.14,3.57.81,5,.86a42.23,42.23,0,0,0,10.52-.91c7.33-1.65,14.58-8.15,20.22-13.06,4.61-4,8.56-8.7,13.22-12.57,4.24-3.52,8.61-6.65,13-10,3.13-2.43,5.9-6,10.25-4,3.82,1.74,6.54,8.06,7.67,11.75,2.53,8.18-1,14.83-4.16,22.24C640.11,692.67,638.46,696,636.7,699.33Z"/><path class="cls-5" d="M350.19,270.13a10.54,10.54,0,0,0-3.19-3.82,22.23,22.23,0,0,0-4.24-2.4c-.75-.34-1.59-.75-2.19-1a3.09,3.09,0,0,0-1.61-.1,7.83,7.83,0,0,0-3.43,2,18.78,18.78,0,0,0-3,3.49c-.9,1.31-1.8,2.86-2.77,4.3a16.44,16.44,0,0,0-2.9,8.75,25.91,25.91,0,0,0,2.25,9.49,49.9,49.9,0,0,0,4.67,9A33.57,33.57,0,0,0,349.2,313a29.52,29.52,0,0,1-9.42-4.54,39.35,39.35,0,0,1-7.57-7.41,47.83,47.83,0,0,1-5.57-9.06,28.75,28.75,0,0,1-3.18-10.48,20,20,0,0,1,2.8-11c.87-1.52,1.66-3,2.68-4.59a19.07,19.07,0,0,1,3.82-4.34,13.06,13.06,0,0,1,2.55-1.67,8.6,8.6,0,0,1,3.2-.95,6.9,6.9,0,0,1,1.81.09,6.69,6.69,0,0,1,1.67.57,20.45,20.45,0,0,1,2.4,1.5,21.82,21.82,0,0,1,2.16,1.73,13.05,13.05,0,0,1,1.89,2.1A8.33,8.33,0,0,1,350.19,270.13Z"/><path class="cls-5" d="M459.8,243.46c-1.2-1.66-1.13-4.06-3.33-5.33-1.68-1-4-.92-5.87-1.25-4.22-.76-7.35-.16-11.39,1.43-5.38,2.12-10.7,4.71-14.6,9.09-1.83,2-2.88,5-4.73,6.79,3.16-.68,6.49-4.08,9.17-5.9a49.26,49.26,0,0,1,6.63-3.29C443.3,241.31,452.19,238.82,459.8,243.46Z"/><path class="cls-9" d="M432.53,250a10.25,10.25,0,0,1,4.85-7.22,14.48,14.48,0,0,1,4.19-1.76,25.27,25.27,0,0,1,4.33-.63c1.43,0,2.82,0,4.18,0a25,25,0,0,1,4.29.5,11.1,11.1,0,0,1,4.18,1.8,6.6,6.6,0,0,1,2.58,3.6l0,.12-.17.09-.05-.1a7.11,7.11,0,0,0-2.95-2.64,11.39,11.39,0,0,0-3.84-1.11,32.19,32.19,0,0,0-4-.15c-1.37,0-2.72,0-4.08.12a19.29,19.29,0,0,0-7.83,1.75,11.9,11.9,0,0,0-5.46,5.72l0,.1-.18-.08Z"/><path class="cls-5" d="M505.87,238.06c.32-1.68,2.08-3.48,3.36-4.28,2.28-1.45,5-2.18,7.43-.92,3.15,1.62,3.25,5.24,5.53,7.55a5.7,5.7,0,0,0-2-1.58c-1.16-.71-2.32-2.14-3.59-2.57-2.39-.82-5.48.84-7.55,1.76-1.05.46-2.4.9-3,2,0-.49-.25-.92-.27-1.37A2.43,2.43,0,0,1,505.87,238.06Z"/><path class="cls-9" d="M504.85,243.39a9.93,9.93,0,0,1,2.68-5.7,11.67,11.67,0,0,1,5.61-3.44,4.81,4.81,0,0,1,.85-.1,6.39,6.39,0,0,1,.87,0,7.77,7.77,0,0,1,2,.45,4.92,4.92,0,0,1,1.8,1.14,14.42,14.42,0,0,1,1,1.16c1.25,1.48,2.49,3,3.76,4.44l.08.08-.14.16-.08-.07-4.41-3.67c-.37-.3-.73-.62-1.11-.89a2.8,2.8,0,0,0-1.25-.49,7.66,7.66,0,0,0-2.75.33,14,14,0,0,0-5,2.44,14.45,14.45,0,0,0-3.69,4.24l-.05.1-.16-.08Z"/><path class="cls-5" d="M347.1,297.83a6,6,0,0,1-4.32-2.65,6.24,6.24,0,0,1-.25-6.25,6.64,6.64,0,0,1,1.19-1.57,6.15,6.15,0,0,1,1.55-1.05,5.63,5.63,0,0,1,2.88-.53c1.67.16,2.63.86,4.28,1.68l.17.37a16,16,0,0,1-3.72,1.06,4,4,0,0,0-2.81,1.9,4.58,4.58,0,0,0-.23,3.44,17.69,17.69,0,0,0,1.6,3.39Z"/><path class="cls-13" d="M478,139.65c-11.89,5.6-25.35,7.17-38.48,6.51s-26-3.47-38.87-6.26"/><path class="cls-13" d="M337.68,164.75A83.38,83.38,0,0,0,320.1,189.5c-1,2.14-1.9,4.57-1.12,6.79.64,1.82,2.31,3.14,2.88,5,1.21,3.93-2.94,7.27-4.5,11.06a18.49,18.49,0,0,0-1,6.79l-.33,20.52a43.91,43.91,0,0,0,.57,9.86"/><path class="cls-13" d="M339.2,180.74c-2.44,8.79-4.86,17.71-4.88,26.84s2.62,18.6,9,25.08"/><path class="cls-13" d="M391.43,326.73c-2.37,4.24-4.2,9-3.72,13.84s3.85,9.61,8.62,10.45c2.42.43,5.55-.86,5.51-3.32-1.56.16-2.43,1.89-2.7,3.42-.92,5.19,1.68,10.57,5.71,14s9.26,5.05,14.48,5.79"/><path class="cls-13" d="M404.12,326.34c-1.24,2.41-2.47,5.45-.92,7.68s5.11,2.13,7.93,1.64a8.48,8.48,0,0,0,4.08,8.56c1.89,1.06,4.69,1.12,5.85-.71a12.45,12.45,0,0,0,3.86,4.6c1.73,1.06,4.28,1.05,5.51-.55a5.63,5.63,0,0,0,.9-2.66,22.35,22.35,0,0,0-.76-9.34c-.38-1.26-1.18-2.71-2.5-2.68"/><path class="cls-13" d="M438.1,356.61c-.61,3.87-.9,7.91.31,11.63s4.21,7.09,8.08,7.71,8.22-2.34,8.24-6.25c1.72,5,6.6,9.81,11.74,8.45,4.58-1.21,6.65-6.4,8.06-10.93.5,4.48,6.36,6.74,10.52,5s6.68-6,8.14-10.28A6.4,6.4,0,0,0,505,357.13c1.81,2.69,6.41,1.61,8.1-1.16s1.36-6.27,1-9.49"/><path class="cls-13" d="M448,349.75a21.85,21.85,0,0,0,3.62,5.95,7.72,7.72,0,0,0,6.22,2.63c2.31-.27,4.45-2.34,4.27-4.67"/><path class="cls-13" d="M413.21,313.24c-2.19,1.74-2.57,5.13-1.33,7.63a10.41,10.41,0,0,0,6.45,5,31.19,31.19,0,0,0,8.3.93"/><path class="cls-13" d="M462.8,223.25c-.44-.71,1,1.24,1.1,1.68.6,2.13-1.6,5-3.79,5"/><path class="cls-13" d="M453.32,224.39a2.48,2.48,0,0,1,.68,3,5.59,5.59,0,0,1-2.24,2.36,16.58,16.58,0,0,1-3.21,1.67"/><path class="cls-13" d="M443.25,226.63a3.77,3.77,0,0,1-2.24,4.45"/><path class="cls-13" d="M431.44,231.1c-.11,0-.07-.22,0-.24a.34.34,0,0,1,.29.14,3,3,0,0,1,.58,2.79,6.58,6.58,0,0,1-1.54,2.52,9.43,9.43,0,0,1-3.59,2.6"/><path class="cls-13" d="M506.56,220.61a4.36,4.36,0,0,0-.86,1.65,1.55,1.55,0,0,0,.61,1.64"/><path class="cls-13" d="M511.09,219.79a1.79,1.79,0,0,0,1.58,2.82"/><path class="cls-13" d="M518.15,220a1.94,1.94,0,0,0-.75,2.12,2,2,0,0,0,1.82,1.33"/><path class="cls-13" d="M525,221.77a3.35,3.35,0,0,0-.4,3.85"/><path class="cls-10" d="M548.53,229.9c-.82-.55-1.63-.35-2.48-.65-3.7-1.3-6.94-3-10.86-3.66a50.31,50.31,0,0,0-11.82-.53,99.12,99.12,0,0,0-22.59,4.57c-2.45.74-4.85,1.07-7.33,1.57-1.61.32-3.59.91-5.23.6s-3.12-1.29-4.7-1.73c-5.66-1.56-12-1.47-17.9-1.86a87.63,87.63,0,0,0-14.49,0c-7.15.7-13.71,2.89-20.6,4.47-2.33.53-4.6,1.48-6.95,2.07-2.62.65-5.25,1.38-7.87,2-1.9.47-3.74,1.07-5.58,1.69a74.28,74.28,0,0,1-7.31,2.19c-3.22.71-6.54.24-9.74,1.19-3.71,1.1-7.53,2.15-11.32,3-4.29,1-8.79,1.56-13.15,2.17-5.8.84-11.17,2.7-17,2.94-2,.08-10.94,1.42-9.43,5,.49,1.16,2,1.19,2.94,1.74a13.28,13.28,0,0,1,3.54,3.27c7-9.3,22.42-10.4,33-11.54,10.39-1.14,20.95-2.06,30.87-5.54,3.37-1.19,7.27-2.62,10.29-.73,2.37,1.47,3.24,4.44,3.68,7.19,1.14,7.35.8,15.86,6.29,20.89a19.57,19.57,0,0,0,7.76,3.94,52.22,52.22,0,0,0,35.34-2.07,16.55,16.55,0,0,0,6.06-4c3-3.41,3.19-8.32,3.79-12.81.52-3.8,1.69-7.46,2.42-11.18.53-2.71,3.38-5.4,6.23-5.34,3.46.09,4.48,3.88,5,6.56.75,3.93,3.95,7,5.24,10.78.65,1.92.9,3.91,1.86,5.75,1,2,1.81,5.19,3.78,6.49a28.47,28.47,0,0,0,4.93,2.63c2.21.88,4.86.49,7.21.5a28.28,28.28,0,0,0,9.18-1.69c3.71-1.23,8.65-2.16,11.08-5.44,2.57-3.48,3.36-7.67,3.94-11.86.41-2.89.65-5.91.94-8.83.31-3.17-.63-6.82,1.25-9.65C549.77,232.6,550.22,231,548.53,229.9Zm-65,18a48.11,48.11,0,0,1-3.14,15.53c-.56,1.47-.77,3.06-2,4.19s-3.48,2.08-5.05,2.81c-2.15,1-4.69,1.42-7,2.08a27.1,27.1,0,0,1-7.54,1.07c-4.58,0-10.2.43-14.42-1.44-3.58-1.59-6.77-1.76-9.48-4.93-3.5-4.08-4-10.48-4.2-15.67-.08-2-.38-4-.28-6a29.35,29.35,0,0,1,.26-3.12,8.39,8.39,0,0,1,2.75-5.29c4-3.68,9.51-4.75,14.7-5.48,8.5-1.22,17.72-2.08,26.2-.16,3.75.85,7.6,1.63,9.18,5.58C484.9,240.49,483.66,244.37,483.5,247.93Zm59.71,6c-.72,3.37-.78,7-3.38,9.49-4.72,4.53-10,5.3-16.26,6.13a18.39,18.39,0,0,1-10.09-1.09c-2.43-.94-4.5-1.56-5.47-4.21-1.43-3.89-1.9-8.12-3.77-11.86-.78-1.53-2.48-3-2.48-4.85,0-4.19-2.77-8.28-1.21-12.61,1.14-3.16,5.7-5.16,8.74-5.66,4-.65,8-1.53,12-1.88,3-.26,6.38-.2,9.38-.15,2.19,0,4.52.88,6.7,1.26,1.66.29,3.11.67,4.06,2.08a14.77,14.77,0,0,1,2.35,6.5c.18,2.91-.12,5.82-.14,8.73A39.4,39.4,0,0,1,543.21,253.93Z"/><path class="cls-13" d="M434.62,384.56c.9,3.79,1.3,7.8,3.2,11.2s6,6.05,9.65,4.76c4.06-1.41,5.35-6.5,5.39-10.8-2.09-.09-3.65,2.28-3.38,4.36s1.82,3.77,3.5,5c2,1.46,4.42,2.59,6.8,2,2.2-.5,3.83-2.28,5.32-4,2-2.24,4-4.6,4.72-7.5-1.33.92-2.82,2.19-2.57,3.79.23,1.45,1.92,2.29,3.38,2.12a8.71,8.71,0,0,0,3.92-1.93l7.3-5.31c2.79,1.14,5.62.28,8.07-1.47a17.88,17.88,0,0,0,5.46-7.09c.21,3.14,4.14,4.94,7.16,4.05s5.15-3.55,6.79-6.23A59.49,59.49,0,0,0,514.66,366"/><path class="cls-13" d="M362.83,208.94a35.19,35.19,0,0,0-5.7,10.79,17.9,17.9,0,0,0,.42,12c.81,1.88,2.47,3.78,4.5,3.51l.06,2.14"/><path class="cls-13" d="M367.28,217.76c.64-5.57,1.24-11.43-.89-16.62-1.45-3.54-4.08-6.47-5.81-9.89a34.84,34.84,0,0,1-3-11.05c-.83-6.2-.89-12.9,2.35-18.26,4.41-7.27,13.46-10,21.7-12.12"/><path class="cls-13" d="M367.94,136.9a47.91,47.91,0,0,1,37.79-12.17c6,.74,11.91,2.65,18,3.14s12.71-.69,16.89-5.11"/><path class="cls-13" d="M452.09,118.6a11.11,11.11,0,0,1,10.69,6.63c.53,1.27.75,2.88-.19,3.88a4,4,0,0,1-1.75.92,22.69,22.69,0,0,1-7.46,1"/><path class="cls-14" d="M311.5,393.32a30.34,30.34,0,0,1-8.67-1.4c-.6-8.61,6.54-14.82,13.76-18,8-3.55,16.09-3.71,24.51-1.87,16.38,3.57,28.27,18,36.51,31.7,6.65,11,11.53,24.89,21.57,33.18,7.26,6,17.2,10,26.2,12.39,5.42,1.44,27.52,2.37,28.84,9.4-31.54,19.2-67.16,8.19-85.53-22.4-9.25-15.4-22.56-41.48-42.5-43C321.23,393,316.32,393.49,311.5,393.32Z"/><path class="cls-15" d="M404.66,454.09c4.39-.15,9.08,2.48,13.38,3.44a66.57,66.57,0,0,0,13.86,1.6c5.35.06,11.6.11,15.06,5a30.71,30.71,0,0,1-11.45-1.44c-4.57-1.33-9-1.38-13.77-1.51-5.53-.15-9-.93-13.54-4.12-1.2-.84-2.37-1.75-3.54-2.62C403.79,453.76,402.9,454.22,404.66,454.09Z"/><path class="cls-14" d="M464,460l-.27-.45a7.17,7.17,0,0,1-.63-3.36c-.19-4.72,3.12-7.18,5.71-10.72,3-4.05,5.06-8.49,3.51-13.62-.74-2.43-1.82-3.66-3.06-5.7-2.06-3.39-1.25-4.9,2-6.42a28.33,28.33,0,0,1,7.07-2.49c2.5-.39,5.19-.13,7.72-.26,2.71-.13,5.35-.15,7.72,1.12,1.41.76,2.85,1.5,4.19,2.21.9,2.89-3,6.55-4.11,9.13-2.61,5.77-6.74,10.36-10.46,15.42-2.34,3.2-4.56,5.68-6.23,9.29C475.19,458.4,467.9,465.88,464,460Z"/><path class="cls-15" d="M470.26,461.43c-1-2.41.33-5.08,1.73-7a21.3,21.3,0,0,1,2.58-3.31c1.17-1.1,2.28-2.27,3.35-3.46a13.13,13.13,0,0,1,1.74-2.09,12.84,12.84,0,0,1-1.6,3.07,10.62,10.62,0,0,1-2.13,2.76c-.73.64-1.3,1.27-2,2a7.55,7.55,0,0,0-2,4.87c-.07.75.22,2.53-.12,3.2-.45.88-.78.39-1.73.21C469.89,461.44,470.13,461.52,470.26,461.43Z"/><path class="cls-9" d="M438.84,468.15c.31-4.66,6.89-9.82,12.09-10.4,4.07-.45,13.45-.66,15.65,3.2,5,1.17,5.16-5,8-6.23s6.25,2.7,7.43,5.73c5.45,14.09-15.24,18.82-24.52,13.58C454.36,485.43,427.75,472.43,438.84,468.15Z"/><path class="cls-14" d="M470.61,468.57c17.05,2.11,9,41.59,13,54.38,3.27,10.49,7.47,20.46,10.93,30.89,2.62,7.88,7,15.36,8.84,23.59.78,3.43,2,40.25-5.42,36.21-1.66-.9-3.81-11.06-5.07-13.21-2.42-4.14-6.67-9-10.38-11.21,5,5.13,5.24,17.9,5.34,25.28.05,3.49-1.31,19.37-4.56,19.35-1.78-5.9-4.8-10.64-8.21-15.87-3.3-5.06-7.44-8.42-10.78-13.27-3.73-5.42-6.61-12.94-9-19.42a114.84,114.84,0,0,1-4.81-62c3-14.82,4-31.49.85-46.25C458.5,474.77,464,469.85,470.61,468.57Z"/><path class="cls-1" d="M433,445.37l.57-1.12"/><path class="cls-4" d="M660.84,690.77q.49,1.25,1,2.46a59.44,59.44,0,0,0,4.61,8.39,8,8,0,0,0,2.39,2.86c.28.2,3.28,1.95,3,2.3-5.57,8.33-11.77,17-13.5,26.94,9.49-1.05,18.54-5.42,26-11.19a57.38,57.38,0,0,0,12.77-13.48,58.91,58.91,0,0,0,4.27-7.94c1.59-3.35,1.12-6.29.49-9.86-.53-2.92-1.25-5.73-1.58-8.71s-1.55-6-1.87-9a17.52,17.52,0,0,0-3.24-8.55c-.79-1.12-1.55-2.75-3.2-2-1.22.54-1.84,2.46-2.38,3.62a18.3,18.3,0,0,1-1.51,3.22c-.43.52,0,.36-.78.2a10.24,10.24,0,0,1-1.56-.83c-1.79-.79-3.77-1-5.63-1.53a35,35,0,0,0-5.67-1.48c-2.64-.38-6.79-1.63-9.42-.29a11.41,11.41,0,0,0-5.06,6.41c-1.08,3.28-2.07,6.53-1.65,10A35,35,0,0,0,660.84,690.77Z"/><path class="cls-16" d="M571.82,540.35l-.11-1.48c3.59,8.39,9,16.21,13.2,24.35,3.93,7.69,7.85,15.15,11.07,23.24,1.56,3.91,3.67,7.28,5.29,11,2.67,6.17,4.65,13.19,7,19"/><path class="cls-16" d="M601.79,606.36c-6.14,12.92-19.78,21.42-27.69,33.19-.47-.28.13-.32.15-.8"/><path class="cls-17" d="M637,596.64c3.83.75,14.89-6.66,18.38-8.68,8.41-4.84,17-9.56,25.72-13.84,5.06-2.47,10.19-5.1,15.43-7"/><path class="cls-16" d="M579.11,630.65c-2.5-5.41-10.67-9-14.83-13.24-5.15-5.24-10.1-10.72-15.22-16-.1-.7.37-.14.89-.36"/><path class="cls-17" d="M629.12,618.91c1.2-.84,3-.73,4.77-.81,6.44-.26,12.81-.44,19.23-1.32,4.12-.56,10.84.18,14.07-2.73"/><path class="cls-16" d="M554.81,607.57c10-14.52,18.15-31.3,30-44.88a1.62,1.62,0,0,1-.4,1.15"/><path class="cls-16" d="M545.1,644.83c3.74-4.23,18.13-2.3,23.62-2.05,6.75.3,13.36.08,20.08-.18,4.07-.16,9.27.18,13.07-.92a5.34,5.34,0,0,0-2.11-.09"/><path class="cls-17" d="M680.34,616.48c-8.55-3.8-16.86-9-25.06-13.54-4.17-2.32-8.72-5.09-11.79-8.73"/><path class="cls-16" d="M518.37,712c3.76-4,16.37-6.59,22-8.64,2.68-1,5.93-1.29,8.34-2.29"/><path class="cls-16" d="M531.33,662.64c6.41,6,15.29,11.31,23.08,15.39"/><path class="cls-16" d="M563.32,684.1c4.17,1.23,8.5,5.27,12.55,7.29"/><path class="cls-18" d="M604.47,641.45c6.23-3.65,11.09-9.64,16.15-14.73,2-2,3.15-4.92,5.08-6.81"/><path class="cls-17" d="M678.56,487.71c-.39,6.32,3,13.37,4.5,19.44,2.13,8.6,3.46,17.15,6,25.68,2.86,9.68,6.37,19.26,8.16,29.21A87.22,87.22,0,0,0,699.85,573c.55,1.73,1.43,5.63,2,5"/><path class="cls-18" d="M610.65,617c4.41.9,10.81,3,15.35,2.33"/><path class="cls-18" d="M633,596.56c-3.52,1-17.64-7.12-18.14-11.63.52,5-7.55,14.16-10.7,17.67"/><path class="cls-17" d="M647.48,619.34q-.06,20.48.07,40.94a6.24,6.24,0,0,0-.95-4"/><path class="cls-16" d="M578.38,645.9c2.25.94,3.77,7.87,5,10.73,1.65,3.69,3.78,7.29,5.36,11,1.36,3.22,2.31,6.44,3.46,9.58,3.79-.35,9.06-2.57,12.87-2.64"/><path class="cls-17" d="M645.39,665.38c2.1-1.37,7.3-1.4,9.57-3.3"/><path class="cls-19" d="M652.65,733.7c1.8-4.86,1.55-11.91,2.05-17.35.62-6.69,1.42-13.32,2.07-20a62.24,62.24,0,0,0,.08-12.21c-.41-4.32.82-8.26,1.08-12.51"/><path class="cls-18" d="M615.79,584.2c6.77-6.12,11-15.24,16-22.79s12.26-13.59,18.05-20.56c3.26-3.92,6.15-8.47,9.67-12h-1.2"/><path class="cls-17" d="M695.44,564.78c-1-2.92-5.22-5.89-7.57-7.82-4.22-3.48-8.29-7.11-12.3-10.83s-7.89-7.12-11.57-11c-.64-.68-4.46-4.93-3.47-5"/><path class="cls-19" d="M672.23,665.12c4.92-4.66,11-8.14,16.2-12.56a90.42,90.42,0,0,1,10-7.55c3.07-2,5.92-4.23,8.85-6"/><path class="cls-19" d="M708.23,581.28c1.77.68,3.33,2.74,4.72,4,4,3.5,8.51,6.13,12.69,9.32,2.56,2,5,3.9,7.46,6,1.42,1.23,3.57,4.3,4.92,4.85h-1"/><path class="cls-19" d="M694.94,645.79c-1.62-1.38-2.83-3.39-4.58-4.78a97.54,97.54,0,0,0-8.46-5.46,25.31,25.31,0,0,1-5.08-3.77"/><path class="cls-19" d="M718.62,587.8c15.12-11.17,30.56-22.86,45.8-33.43a15.6,15.6,0,0,1,4.41-2.58,5.15,5.15,0,0,1-.68,0"/><path class="cls-19" d="M741.57,538.51c8.31,4.83,16.41,10.52,26.06,12.29a73.05,73.05,0,0,1,9.46,2.21"/><path class="cls-19" d="M751.48,518.94c1.54,2,3.67,3.18,5.72,4.52,3.47,2.27,6.7,4.83,10.12,7.15,3.61,2.44,6.94,5.64,10.68,7.79a29.31,29.31,0,0,0,4.41,2c.57.21,1.16.4,1.74.61.73.25,1.69,0,1.15.41"/><path class="cls-19" d="M702.91,640.24a104.06,104.06,0,0,0-2.17-28.39,102.79,102.79,0,0,1-1.4-11.33c-.14-1.52-.66-3.73-.05-5"/><path class="cls-10" d="M668,311.67a7.11,7.11,0,0,0-3.84,2.08c-2.27,2.4-.84,6.89.53,9.48,1.19,2.23,7.85,2.2,9.85,1.41a5.89,5.89,0,0,0,3.86-5.18C678.65,314.09,672.79,310.73,668,311.67Z"/><path class="cls-2" d="M905.73,347.43c-4.09-1.31-4.09-9.08-2.42-12.36,3.13-6.15,13.68-7.51,19.75-6.55,10.54,1.67,17.73,14.29,10.76,23.66C927.59,360.56,905.48,355.44,905.73,347.43Z"/><path class="cls-6" d="M779,411.91c1.84-1.63,4.38-2.69,6.3-1.84a8,8,0,0,1,4.2,9c-1.56,6.12-7,6.42-10.76,1.88-1.26-1.53-2.62-3.92-1.93-6A7.42,7.42,0,0,1,779,411.91Z"/><path class="cls-6" d="M204.6,750.54c2.36.66,4.63,2.22,5,4.29a8,8,0,0,1-5.24,8.39c-6,2-9.2-2.39-7.43-8,.6-1.89,1.87-4.33,4-4.87A7.49,7.49,0,0,1,204.6,750.54Z"/><path class="cls-2" d="M84.94,690.43c3.12-5.76,7.87-8.89,15.94-10.28,11-1.89,18.35,4.17,21.57,14.51,3.93,12.61,1.18,29.86-12.6,33.06-12.7,2.95-25.76-.21-28.54-14.4a34.22,34.22,0,0,1,.76-15.39A35.37,35.37,0,0,1,84.94,690.43Z"/><path class="cls-10" d="M214.34,854.67c-4.54-.93-20.75-3-14,6.52A8.07,8.07,0,0,0,206.1,865a7.32,7.32,0,0,0,6.42-2.28C213.22,862,216,855,214.34,854.67Z"/><path class="cls-2" d="M77.25,844.61c5.14,1.32,10.5,2.16,13.25-3.3s-1-9.42-5.54-12.47c-3.63-2.45-6.95-3.73-10.12-2.57-2.91,1.06-4.79,4-4.76,8,0,4.82,1.24,8.74,5.81,10Z"/><path class="cls-15" d="M482.93,589.89c-.1-2.45-2.37-3.79-3.71-5.73a51.6,51.6,0,0,1-5.87-11.36c-4-10.9-4.79-21.5-4.79-33V516.44c0-7.11-1.31-13.74-1.31-20.85.34,12.13-2.37,24.37-2.64,36.52-.23,10.55-2.45,21.52-1.24,32.06C464.47,573.8,472.59,588.53,482.93,589.89Z"/><path class="cls-5" d="M488,279.39a5.79,5.79,0,0,1,3.14,3.44c1.36-.46,1.95-2.34,3.95-2.73.48-4.1-1.48-8.92-2.42-12.88-1.09-4.57-2.17-9.2-2.8-13.81-.36,6.4.63,12.91.13,19.27C489.81,275,489.16,277.93,488,279.39Z"/><path class="cls-9" d="M511.28,316.93a11.9,11.9,0,0,1-4,3.79,26.37,26.37,0,0,1-4.94,2.27c-.83.31-1.65.59-2.47.83l-2.42.79a47.24,47.24,0,0,1-5.15,1.28,41.64,41.64,0,0,1-10.64.71,23.11,23.11,0,0,1-5.42-.91,11.63,11.63,0,0,1-4.79-2.74l.14-.26a14.45,14.45,0,0,0,4.87,1.41,29.9,29.9,0,0,0,5.1.14A69.76,69.76,0,0,0,491.74,323c3.36-.61,6.68-1.56,10-2.29a35.87,35.87,0,0,0,4.9-1.46,14.91,14.91,0,0,0,4.4-2.51Z"/><path class="cls-5" d="M323,753.55c-1.95-1.08-4.13-3.72-6-5.13a28.26,28.26,0,0,1-6.25-6c-2.47-3.57-4.37-7.89-6.44-11.69-3.65-6.73-6.21-13.77-10.15-20.4-3-5.07-5-10.81-7.72-16.05a118,118,0,0,1-8.42-20.9c-1.68-5.8-3.26-11.47-5.31-17.14-2.24-6.2-5.24-12.14-7.38-18.36-2.2-6.43-4.67-13-6.13-19.63-1.07-5-.83-10.1-.66-15.12.19-5.48-2.14-4.61-6.93-4.84-1.37-.07-2.8-.15-4.24-.29,3.25,24.58,10.15,52,21.53,73.37,8.17,15.35,14.93,31.45,23.23,46.61S309.58,746.17,323,753.55Z"/><path class="cls-5" d="M639.21,682.77c-2.35,4.24-4.8,8.42-7.49,12.37-4.45,6.52-8.91,13-13.65,19.34-8.23,10.94-22.7,17.69-34.91,23.48-4.92,2.33-10.62,4.09-15.73,6a73,73,0,0,0-13.26,6.34,23.92,23.92,0,0,0-3.12,2.17c5.92-1.22,11.81-2.55,17.67-4,7.07-1.81,14.09-3.84,21-6.17,6.24-2.11,12.49-3.72,17.69-7.71,2.53-1.94,5.25-3.69,7.92-5.52,5.2-3.55,9.37-9.58,12.66-14.89,3-4.85,6-9.77,8.69-14.83,1.76-3.3,3.41-6.66,4.85-10.1,2.59-6.15,5.9-12.58,4.78-19.47C644,674,641.63,678.42,639.21,682.77Z"/><path class="cls-5" d="M475.55,286.41c-.43.15-.9.23-1.22.35-1.67.62-3.18,1.45-4.8,2.15a25.7,25.7,0,0,0-8.16,5.94c-2,2.06-4.21,3.91-6.15,6-1,1.13-2.12,2.2-3.17,3.3a39.67,39.67,0,0,1-3,3.33c-.08-1.15.77-2.65,1.24-3.69a22.05,22.05,0,0,1,4.09-5.4c1.81-2,3.74-3.93,5.53-6a32.44,32.44,0,0,1,5.27-5.14,26.22,26.22,0,0,1,5.77-3.08,7.71,7.71,0,0,1,4.12-.32c.74.26,1.91,1.09,1.31,1.95A1.67,1.67,0,0,1,475.55,286.41Z"/><path class="cls-15" d="M397.13,451.54c-5.08-1-12-7.37-15.54-11a96.79,96.79,0,0,1-8.52-10.15c-1.61-2.21-3.29-6-6-7,2.38,2.7,6.28,4.39,9.1,6.8a93.61,93.61,0,0,1,9.72,9.89C388.76,443.44,393.05,451.21,397.13,451.54Z"/><path class="cls-5" d="M665.85,688.93c-.07-.17-.13-.35-.19-.52a49.4,49.4,0,0,1-2.84-12.91c-.07-1.18.23-2.53-.34-3.54-1.79-3.18-2.72,1.13-3.09,2.38a19.57,19.57,0,0,0-1,7.88,35,35,0,0,0,2.43,8.55q.49,1.25,1,2.46a59.44,59.44,0,0,0,4.61,8.39,8,8,0,0,0,2.39,2.86c.28.2,3.28,1.95,3,2.3-5.57,8.33-11.77,17-13.5,26.94.07-.39,6-.76,6.76-1.31,1.27-1,2.59-4.25,3.39-5.75,1.3-2.45,2.33-5,3.81-7.37a40,40,0,0,0,4.63-11c1-4-2.26-6.59-4.3-9.74-1.14-1.75-2.84-2.94-4.13-4.56A17.94,17.94,0,0,1,665.85,688.93Z"/></svg>