<svg id="Vrstva_1" data-name="Vrstva 1" xmlns="http://www.w3.org/2000/svg" viewBox="0 0 400 400"><defs><style>.cls-1{fill:#bfb4ac;}.cls-2{fill:#c2cfe2;}.cls-3{fill:#ebddd3;}.cls-4{fill:#9dabc1;}.cls-5{fill:#4e4d4d;}.cls-6{fill:#d9b092;}.cls-7{fill:#af886b;}</style></defs><path class="cls-1" d="M327.88,340.45c-56.93,0-113.86,1.35-170.8,1.22-22.36-.05-44.81.27-67.15-.49-21.66-.73-43-3-64.66-.26,1.59,8.81,1.8,18.78,3.38,27.6,14.79-3.34,29.59-6.69,44.56-9.08,69.32-11.11,140.1-1.68,210.31-2.52,16.13-.19,32.46-1,47.91-5.62C330.24,348.23,329.06,343.52,327.88,340.45Z"/><path class="cls-2" d="M63.38,146.88c-4.32-.35-8.74.33-13-.64s-8.41-4.39-8.19-8.72c.12-2.5,1.67-4.69,3.32-6.56C52.8,122.73,63,117.68,71.1,110.28s14.24-19.16,9.78-29.2c-2.76-6.2-9.22-10.92-9.54-17.71-.47-9.76,11.32-14.74,20.84-16.93,55.29-12.72,108.87-18.29,165.67-12.92,4.71.45,11,3.15,9.63,7.68-1.16,3.81-7.08,4.31-8.45,8.06-1.55,4.22,3.78,7.54,8.1,8.79a230.87,230.87,0,0,0,57.66,9.13c15.82.47,32.2-.59,46.91,5.27a5.48,5.48,0,0,1,2.93,2.09c1.28,2.31-1,4.95-3.2,6.42a45.77,45.77,0,0,1-17.08,7c-2.76.52-5.87,1-7.61,3.16-2.63,3.32-.17,8.52,3.51,10.62s8.12,2.24,12.23,3.28,8.45,3.63,9.07,7.82c1,7-8.07,10.51-15.09,11.45l-58.76,7.84c-1,5.25,4.24,9.77,9.44,11s10.7.38,15.92,1.49,10.57,5.39,9.88,10.68c-.43,3.27-3,5.79-5.49,7.94a130,130,0,0,1-32.25,20.33c-3.84,1.69-12.06,2.71-15,5.41-3.24,2.94-2.29,6.81-4.42,10.39a9.84,9.84,0,0,1-4.37,3.48c-13.74,6.71-29.92,4.27-45.21,4.13a142.46,142.46,0,0,0-36.88,4.55c-6.83,1.78-14.59,4-20.54.15-2.82-1.8-4.74-4.69-7.2-7-11.23-10.38-29-5.33-44.24-5.71-15.86-.4-28.85-4-29.47-20.14C87.27,164.12,80.36,148.27,63.38,146.88Z"/><polygon class="cls-3" points="54.86 245.52 54.86 222.85 53.62 199.39 52.7 184.41 187.3 73.35 319.37 183.3 315.56 339.62 140.99 341.68 107.81 341.58 74.91 340.06 56.63 339.62 54.86 245.52"/><polygon class="cls-2" points="55.21 339.62 54.86 245.52 78.34 247.35 75.78 295.4 77.86 313.36 78.16 340.13 55.21 339.62"/><path class="cls-4" d="M78.34,247.35l-23.48-1.83,0,14.67a88.76,88.76,0,0,1,22.94-3.66Z"/><polygon class="cls-2" points="294.47 248.58 225.75 248.58 212.2 341.1 291.66 340.16 294.47 248.58"/><path class="cls-4" d="M224.78,255.23c17.87,1.35,35.81,2.16,53.69.68,5-.41,9.91-1,14.82-1.79a8.81,8.81,0,0,0,1-.22l.16-5.32H225.75Z"/><path class="cls-1" d="M151.54,115.61c4.82-4,9.67-8,14.62-11.87a219,219,0,0,1,22.91-15.83c3.54-2.09,7.22,1.41,9.53,3.75,3.38,3.43,6.87,6.76,10.4,10,7.16,6.67,14.59,13.06,22.36,19,6.69,5.11,13.63,9.9,20.09,15.32,3.28,2.76,6.22,5.77,9.26,8.77s6.89,5.65,10.17,8.63c12.14,11,25,21.16,38,31.15,2.17,1.67,5.82,5.29,8.66,5.55s5-3.48,5-6.12c0-3.28-2.13-6.24-4.72-8.25s-5.67-3.28-8.57-4.82c-14.85-7.86-25-22.51-38.94-31.82-8.89-5.91-19.33-9.66-26.93-17.15-4.45-4.4-7.7-10.27-12.82-14-4.88-3.53-7.87-7.84-12-12.21a55.11,55.11,0,0,0-7.9-6.54c-3.08-2.25-6.15-4.07-8.22-7.2-2.22-3.36-4.88-6.4-7.32-9.6-.91-1.19-2.05-2.48-3.55-2.49a4.93,4.93,0,0,0-2.78,1.2c-37.13,26.09-69.33,58.53-105.09,86.45-9.78,7.64-19.94,15-27.66,24.76a16.83,16.83,0,0,0-2.16,3.29,9.18,9.18,0,0,0-1.18,3.15,31.44,31.44,0,0,0,1,11.58,4.78,4.78,0,0,0,.77,1.74,3.4,3.4,0,0,0,2-.91,17,17,0,0,0,2.74-3.9A143.84,143.84,0,0,1,71.41,181a125.93,125.93,0,0,1,14.66-14.37c11.88-9.87,24.86-18.33,37.13-27.71C132.91,131.44,142.17,123.45,151.54,115.61Z"/><path class="cls-5" d="M114.71,248.58H312.13l2.81-11.65c-.14.6-17.76.95-19.67,1-8.42.27-16.81,0-25.22-.31q-45.75-1.41-91.53-.46h-.07c-19,.4-38,1.11-57,1.11-2.41-.11-4.89-.17-7.28-.52-1.23-.18-3.1-1.25-4.09-.43-2.15,1.79-.39,8.85-.39,11.25Z"/><path class="cls-5" d="M187.49,63.81c-4,.12-6.83,6.2-9.73,9.07-18.88,18.64-42,33.12-62.45,50-21.66,17.9-42.44,36.83-64.13,54.71a151.81,151.81,0,0,1-13.63,10.6c-3.76,2.45-9.07,4.71-11.48,8.68-1.74,2.88.36,4,2.52,6.59l3.49,4.16L36,204.36,187.3,77.6,338.63,204.36l3.88,3.25c1.68-2,7.26-6.66,6.24-9.37s-6-3.36-8.26-4.88c-4.26-2.9-7.3-7.21-11-10.75-4.31-4.15-8.74-8.19-13.23-12.14-3.49-1.75-6.85-5.91-9.9-8.39-3.27-2.66-7-5-10.05-7.92-6.17-5.89-13.92-9.69-20.41-15.18-6.75-5.72-12.6-12.42-19.52-17.95-10-8-20-15.76-29.67-24.08S207,80.24,198.22,71.18c-2.59-2.7-5.72-6.18-9.49-7.22A4.13,4.13,0,0,0,187.49,63.81Z"/><polygon class="cls-6" points="114.46 248.58 117.27 342.23 213.29 341.1 226.84 248.58 114.46 248.58"/><path class="cls-5" d="M128.34,343.89c-12.75,0-25.71-.08-38.48-.51-5.1-.17-10.26-.43-15.24-.68-16.07-.81-32.7-1.64-49.08.4L25,338.73c16.76-2.08,33.58-1.24,49.84-.42,5,.25,10.1.5,15.17.67,16.56.56,33.47.53,49.83.5,5.65,0,11.5,0,17.24,0,29.78.07,60-.27,89.33-.61,26.7-.3,54.31-.61,81.47-.61v4.4c-27.14,0-54.73.31-81.42.61-29.29.33-59.58.68-89.39.61-5.73,0-11.57,0-17.22,0Z"/><path class="cls-7" d="M115.24,248.58c-.15,1.71-.4,3.57-.62,5.46l.29,9.5c1.61-1.62,8.41-4.62,9.21-4.9a68.52,68.52,0,0,1,13.71-3.23h0c3.71-.48,7.45-.65,11.18-.82L182.08,253c10.61-.5,20.85.4,31.43,1.29q6.17.53,12.35,1l1-6.74Z"/><path class="cls-5" d="M214.64,342.6l-2.61-.4.21-1.31a16.88,16.88,0,0,0,0-3.56,22.13,22.13,0,0,1,0-3.46,71.8,71.8,0,0,1,1.47-8.39c.31-1.41.62-2.87.88-4.28,1.51-8.32,3-16.78,4.36-25.14,2.75-16.7,5.27-33.68,7.49-50.48l.17-1.31,2.62.35-.18,1.3c-2.21,16.83-4.74,33.84-7.5,50.57-1.38,8.37-2.85,16.85-4.36,25.18-.27,1.45-.59,2.94-.9,4.37a67.24,67.24,0,0,0-1.42,8.07,20.94,20.94,0,0,0,0,3.06,18.48,18.48,0,0,1-.06,4.13Z"/><path class="cls-5" d="M116.24,343.59l0-1.32c-.3-10.21-.88-20.54-1.43-30.53-1.15-20.75-2.35-42.2-1.19-63.61l.07-1.32,2.64.14-.08,1.32c-1.14,21.27.05,42.65,1.19,63.33.56,10,1.13,20.35,1.44,30.59l0,1.32Z"/><path class="cls-5" d="M56.18,246.84H53.54v-1.32c0-2.2.09-4.44.18-6.6a92,92,0,0,0,0-11.62c-.45-4.89-.56-9.8-.66-14.54,0-1.58-.07-3.15-.11-4.74-.1-3.32-.44-6.71-.76-10s-.69-6.88-.78-10.36l0-1.32,2.64-.07,0,1.32c.09,3.39.43,6.84.76,10.17s.68,6.76.78,10.17c0,1.6.08,3.18.11,4.76.1,4.7.21,9.56.64,14.36a90.26,90.26,0,0,1,0,12c-.08,2.13-.17,4.34-.17,6.49Z"/><polygon class="cls-5" points="316.85 340.97 314.21 340.9 318.04 188.83 185.44 77.76 187.13 75.74 320.71 187.63 320.69 188.26 316.85 340.97"/><path class="cls-5" d="M145.67,341.69l-.3-14.19-.6-29-.49-23.34c0-.57-.06-1.14,0-1.71.07-2.26,1.89-1.56,3.77-1.66,5.21-.25,10.37-1.2,15.6-1.19a55.4,55.4,0,0,1,6.81.48c2.12.26,4.74.33,6.76,1.06,1.32.48.95,1.76.95,3.1v66.25Z"/><path class="cls-5" d="M79.44,341.49l-2.64-.08,0-1.32c.11-3.21.07-5.84,0-8.38,0-1.65,0-3.37,0-5.23a119.47,119.47,0,0,0-.52-15.12c-.2-1.63-.47-3.29-.74-4.9-.34-2.08-.69-4.24-.9-6.4a92.65,92.65,0,0,1,0-13.23c.64-12.78,1.45-25.71,2.25-38.25l-25.13-1.66.17-2.63,27.76,1.83-.09,1.32C78.83,260.37,78,273.75,77.33,287a90.25,90.25,0,0,0,0,12.85c.2,2.07.54,4.18.88,6.22.27,1.64.54,3.33.75,5a121.63,121.63,0,0,1,.54,15.46c0,1.84,0,3.53,0,5.18,0,2.56.07,5.22,0,8.49Z"/><path class="cls-2" d="M144.24,221.93c0-12.46-1.06-24.74-.27-37.2.83-13,.27-26.06.56-39.07.06-2.38-.58-4.83-.21-7.18.3-1.85,0-4.67.66-6.31a2.32,2.32,0,0,1,.68-.82c6-5.19,13.31-9.49,19.85-14.13l6.58-4.66c.86-.62,6.07-3.54,6.08-4.41-.08,5.23.33,10.27.09,15.48-.27,5.81-.14,11.62-.07,17.43q.27,24.23-1,48.44c-.57,10.57-.3,21-.56,31.58,0,0,0,.85,0,.85Z"/><path class="cls-4" d="M178.17,108.15c0,.87-5.22,3.79-6.08,4.41l-6.58,4.66c-6.54,4.64-13.84,8.94-19.85,14.13a2.32,2.32,0,0,0-.68.82c-.63,1.64-.36,4.46-.66,6.31-.37,2.35.27,4.8.21,7.18-.29,13,.27,26.07-.56,39.07-.79,12.46.27,24.74.27,37.2h8.2c.42-3.72-.27-8.31-.24-10.47l.36-23.53q.34-23.34.7-46.69a14,14,0,0,1,.58-4.61,13,13,0,0,1,4.16-5.18c6.49-5.53,14-10,20.27-15.69C178.21,113.24,178.13,110.72,178.17,108.15Z"/><path class="cls-5" d="M176.57,223.25H144.24a1.32,1.32,0,0,1-1.32-1.32c0-4.52-.14-9.09-.28-13.52-.24-7.75-.49-15.78,0-23.77s.49-16.22.47-24.15c0-4.87,0-9.91.08-14.86a24,24,0,0,0-.15-2.76,18.13,18.13,0,0,1,0-4.6,20.54,20.54,0,0,0,.16-2.29,13.8,13.8,0,0,1,.57-4.29,3.38,3.38,0,0,1,1.05-1.33,137.25,137.25,0,0,1,13.47-9.81c2.15-1.44,4.38-2.92,6.48-4.41l2-1.44,4.53-3.22c.25-.17.7-.45,1.33-.84a32.93,32.93,0,0,0,4.27-2.91,1.32,1.32,0,0,1,2.57.45c0,2.24,0,4.5.08,6.68.07,2.87.15,5.84,0,8.83-.23,4.91-.17,9.93-.11,14.78,0,.86,0,1.72,0,2.58.18,16-.17,32.38-1,48.52-.35,6.41-.38,12.9-.42,19.17,0,4,0,8.23-.14,12.38v.07C177.9,222,177.88,223.25,176.57,223.25Zm-31-1.32Zm0-1.32h29.74c.09-4,.12-8,.14-11.88,0-6.31.06-12.83.41-19.3.86-16.09,1.21-32.36,1-48.35l0-2.58c-.07-4.89-.13-9.94.1-14.93.14-2.9.06-5.82,0-8.64,0-1.26-.06-2.54-.08-3.83-.73.5-1.66,1.08-2.82,1.79l-1.18.74-4.54,3.22-2,1.44c-2.13,1.51-4.38,3-6.55,4.46a135.67,135.67,0,0,0-13.21,9.6,3.17,3.17,0,0,0-.32.31,13.1,13.1,0,0,0-.38,3.41,23.35,23.35,0,0,1-.19,2.61,15.82,15.82,0,0,0,.05,3.94,25.85,25.85,0,0,1,.17,3.07c-.11,4.92-.1,9.94-.08,14.8,0,8,0,16.22-.48,24.32-.5,7.86-.25,15.82,0,23.52C145.4,212.35,145.53,216.49,145.55,220.61Zm31.31-112.48Z"/></svg>