<svg id="Vrstva_1" data-name="Vrstva 1" xmlns="http://www.w3.org/2000/svg" viewBox="0 0 400 400"><defs><style>.cls-1{fill:#c3cfe1;}.cls-2{fill:#4e4d4d;}.cls-3{fill:#c2cfe2;}.cls-4{fill:#d9b092;}.cls-5{fill:#ebddd3;}.cls-6{fill:#af886b;}.cls-7{fill:#bfb4ac;}</style></defs><path class="cls-1" d="M274.83,40.2l4.5-.1,2.47-.05-2.22,1.28c-5.69,3.29-11.33,6.61-16.71,10.27a132,132,0,0,0-15.29,11.8A113.62,113.62,0,0,0,234.4,77.27a127.94,127.94,0,0,0-11,15.59,151.94,151.94,0,0,0-8.73,16.92,148.73,148.73,0,0,0-6.49,17.9,181.76,181.76,0,0,0-7,37.52c-.6,6.39-.89,12.73-.94,19.23s0,13.25-.85,20.15A71.4,71.4,0,0,1,197.43,215a54.84,54.84,0,0,1-3.77,10.1,76.76,76.76,0,0,1-11.95,17c-9,10.16-19.19,18.74-29.44,27s-20.74,16.2-31.37,24l-.4-.45,29.7-25.87c9.83-8.68,19.53-17.57,27.92-27.63A77.4,77.4,0,0,0,189,222.83,56.52,56.52,0,0,0,193.79,204c.64-6.5.57-13.06.59-19.63s.25-13.16.82-19.71a182.77,182.77,0,0,1,7.55-38.7,148.24,148.24,0,0,1,16.6-35.74,124.87,124.87,0,0,1,26.1-29.44c10.22-8.35,21.85-14.73,33.72-20.33l.11.59-4.48-.26Z"/><path class="cls-2" d="M284.58,168.54a7.15,7.15,0,0,0-3.84,2.08c-2.26,2.4-.84,6.89.54,9.48,1.18,2.23,7.84,2.19,9.84,1.41a5.87,5.87,0,0,0,3.86-5.18C295.26,171,289.39,167.59,284.58,168.54Z"/><path class="cls-3" d="M115.79,241c-4.09-1.3-4.09-9.08-2.42-12.35,3.13-6.16,13.68-7.51,19.75-6.55,10.54,1.67,17.73,14.28,10.76,23.65C137.65,254.17,115.54,249.05,115.79,241Z"/><path class="cls-4" d="M141.09,131.37c1.83-1.62,4.38-2.68,6.29-1.83a8,8,0,0,1,4.2,9c-1.55,6.13-7,6.42-10.76,1.89-1.26-1.53-2.61-3.92-1.93-6A7.62,7.62,0,0,1,141.09,131.37Z"/><path class="cls-4" d="M151.19,303c-.17-.1-.34-.18-.51-.26-1.49,1.6-3,3.17-4.58,4.68-.36.35-.73.48-.85,1,2.59.12,5.52-1,8-1.73l1.8-.59a3,3,0,0,0-.68-1.36C153.71,304.08,152,303.47,151.19,303Z"/><path class="cls-5" d="M174.6,294.67a3.31,3.31,0,0,0-1.79-.77c-.64-.17-1.35-.52-1.46-1.17s.31-1.11.41-1.68a1.63,1.63,0,0,0-1.23-1.78,7.17,7.17,0,0,0-1.6.06c-.53,0-1.16-.21-1.27-.74a2.06,2.06,0,0,1,.15-1,2.65,2.65,0,0,0-1.34-3l-.32-.12c-.69.69-1.35,1.4-2,2.14-4.42,5.4-8.77,10.93-13.51,16.06.17.08.34.16.51.26.81.47,2.52,1.08,3.17,1.78a3,3,0,0,1,.68,1.36c2.33-.79,4.61-1.68,6.88-2.63,4.11-1.72,8.13-3.65,12.18-5.52l.1-.17C174.78,296.84,175.35,295.52,174.6,294.67Z"/><path class="cls-4" d="M348.64,183.46c-.54-3.62-4.66-5.78-8.31-5.52s-6.9,2.27-10,4.17c-4.72,2.86-9.52,5.58-14.48,8-10.42,5.11-20.58,9.65-30.44,15.8-17.84,11.13-36.41,21-54.06,32.48-17.91,11.66-35.42,23.9-52.71,36.46-3.26,2.37-6.86,4.75-10,7.44-.85.72-1.66,1.47-2.43,2.24l.32.12a2.65,2.65,0,0,1,1.34,3,2.06,2.06,0,0,0-.15,1c.11.53.74.76,1.27.74a7.17,7.17,0,0,1,1.6-.06,1.63,1.63,0,0,1,1.23,1.78c-.1.57-.51,1.1-.41,1.68s.82,1,1.46,1.17a3.31,3.31,0,0,1,1.79.77c.75.85.18,2.17-.4,3.15l-.1.17,3-1.37c8.84-4,16.83-9.49,24.78-15q7.65-5.29,15.37-10.49c18.37-12.41,36.93-24.51,55.57-36.48,9.32-6,18.6-12.07,28-17.88,9-5.54,17.35-11.51,27.24-15.69,7-2.94,14.66-5.62,18.88-11.89A8.33,8.33,0,0,0,348.64,183.46Z"/><path class="cls-6" d="M153.24,306.73l1.8-.59a3,3,0,0,0-.68-1.36,3.53,3.53,0,0,0-.86-.62c-2.5,1.43-5,2.87-7.49,4.29A29.43,29.43,0,0,0,153.24,306.73Z"/><path class="cls-7" d="M154.36,304.78a3,3,0,0,1,.68,1.36c2.33-.79,4.61-1.68,6.88-2.63,4.11-1.72,8.13-3.65,12.18-5.52l.1-.17c.58-1,1.15-2.3.4-3.15a3.31,3.31,0,0,0-1.79-.77,2.87,2.87,0,0,1-.93-.41q-9.16,5.37-18.38,10.67A3.53,3.53,0,0,1,154.36,304.78Z"/><path class="cls-6" d="M333.67,194.74c-20.13,9.07-38.47,21.59-56.9,33.75q-51.51,34-104.89,65a2.87,2.87,0,0,0,.93.41,3.31,3.31,0,0,1,1.79.77c.75.85.18,2.17-.4,3.15l-.1.17,3-1.37c8.84-4,16.83-9.49,24.78-15q7.65-5.29,15.37-10.49c18.37-12.41,36.93-24.51,55.57-36.48,9.32-6,18.6-12.07,28-17.88,9-5.54,17.35-11.51,27.24-15.69,7-2.94,14.66-5.62,18.88-11.89a8.33,8.33,0,0,0,1.7-5.76,5,5,0,0,0-.15-.69,26.24,26.24,0,0,1-1.37,2.64C344.21,190.14,338.72,192.47,333.67,194.74Z"/><path class="cls-4" d="M136.79,309.67a30.59,30.59,0,0,1-11.88,2.54,40.74,40.74,0,0,1-12.11-1.74,67.33,67.33,0,0,1-21.58-11.41,71.39,71.39,0,0,1-16.73-18,48.28,48.28,0,0,1-7.22-36.2,60.47,60.47,0,0,1,3.7-12A72.11,72.11,0,0,1,84.69,212a114.59,114.59,0,0,1,18.82-16.08,227.79,227.79,0,0,1,20.93-12.7c7.14-3.9,14.39-7.51,21.6-11.08s14.44-7,21.5-10.7,13.93-7.61,20.5-11.92c1.62-1.11,3.29-2.16,4.86-3.32l4.72-3.49,4.52-3.71,1.12-.93,1.07-1,2.13-2c5.71-5.23,10.72-11.36,16.18-17.43,2.72-3,5.54-6.06,8.58-9a75.27,75.27,0,0,1,9.9-8,55.65,55.65,0,0,1,11.58-6.06,46.51,46.51,0,0,1,6.43-1.86,39.1,39.1,0,0,1,6.76-.77,17.6,17.6,0,0,1,3.9.2,9.61,9.61,0,0,1,4.91,2.36,9.83,9.83,0,0,1,2.75,4.6,14.43,14.43,0,0,1,.53,4.29c-.12,5.11-1.85,9.47-3.4,13.23-.8,1.89-1.58,3.67-2.2,5.39a25.75,25.75,0,0,0-.8,2.46,17.23,17.23,0,0,0-.45,2.36,15.76,15.76,0,0,0,.12,4.62,7.8,7.8,0,0,0,1.51,3.41,4.56,4.56,0,0,0,1.18,1,4.44,4.44,0,0,0,1.53.59,12.92,12.92,0,0,0,4.46-.06c1.78-.25,3.74-.69,6-1,.54-.08,1.13-.14,1.71-.2a16.69,16.69,0,0,1,6.07.62,14.74,14.74,0,0,1,7.18,4.39c.26.33.52.62.76,1s.45.76.66,1.14a9.56,9.56,0,0,1,.84,2.7,6.83,6.83,0,0,1,.09,1.43,6.43,6.43,0,0,1-.13,1.41c-.09.43-.19.94-.3,1.3s-.23.67-.34,1l-.54,1.36a4.64,4.64,0,0,0-.18.57,2.14,2.14,0,0,0,0-.38,2.51,2.51,0,0,0-.37-1,2.28,2.28,0,0,0-.73-.75,2.19,2.19,0,0,0-.77-.33c-.34-.05-.15,0,.3,0a17.45,17.45,0,0,1,2.14,0,14,14,0,0,1,4.24,1.08,50.55,50.55,0,0,1,5.71,3.21,13.9,13.9,0,0,0,2.06,1,6.51,6.51,0,0,0,1.76.37,9.1,9.1,0,0,0,4-.82,40.52,40.52,0,0,0,4.86-2.51c1.73-1,3.56-2.07,5.64-3a21.68,21.68,0,0,1,7.07-2,19.91,19.91,0,0,1,7.52.76,23.67,23.67,0,0,1,11.76,8.22,26.81,26.81,0,0,1,3.49,6.14,35.27,35.27,0,0,1,2.45,13.28,53.83,53.83,0,0,1-6.52,24.9A77.76,77.76,0,0,1,340.87,220a141.26,141.26,0,0,1-19.53,15.11c-6.8,4.49-13.72,8.64-20.66,12.77-13.9,8.2-27.92,16-41.57,24.43-6.85,4.16-13.6,8.46-20.16,13a144.43,144.43,0,0,0-18.6,14.93A70.53,70.53,0,0,0,206,319.05a46.33,46.33,0,0,0-3.92,11.17l-.44,2.94-.11.74,0,.74-.08,1.49a7.28,7.28,0,0,0,.13,2.83c.15.37.54.63.73.46a.77.77,0,0,0,.27-.45.31.31,0,0,0,0-.18s0,0-.09,0l0-.5a.6.6,0,0,1,.55.25.73.73,0,0,1,.1.54,1.3,1.3,0,0,1-.45.8.87.87,0,0,1-.51.18,1,1,0,0,1-.48-.15,1.56,1.56,0,0,1-.59-.66,7.36,7.36,0,0,1-.27-3.1l0-1.51,0-.76.09-.76.36-3a47.53,47.53,0,0,1,3.7-11.52,71.32,71.32,0,0,1,14.19-19.48,146.54,146.54,0,0,1,18.52-15.5c6.51-4.75,13.21-9.21,20-13.53,13.59-8.63,27.55-16.65,41.28-25,6.86-4.19,13.7-8.42,20.36-12.92a139.3,139.3,0,0,0,18.83-14.94,73.68,73.68,0,0,0,14.45-19,50.18,50.18,0,0,0,5.92-23,31,31,0,0,0-2.18-11.63,20.47,20.47,0,0,0-7.19-9.18,19,19,0,0,0-5.28-2.57,15.39,15.39,0,0,0-5.8-.57c-3.92.38-7.42,2.54-10.88,4.53a44.5,44.5,0,0,1-5.4,2.81,13.77,13.77,0,0,1-6.06,1.19,12.91,12.91,0,0,1-5.85-2,49.15,49.15,0,0,0-5.2-2.92,8.84,8.84,0,0,0-2.77-.71c-.93-.1-1.89.2-3.07,0a2.32,2.32,0,0,1-1.51-1,2.55,2.55,0,0,1-.3-1.76,15.57,15.57,0,0,1,1-3,5.17,5.17,0,0,0,.41-2.71,4.66,4.66,0,0,0-1.18-2.44,10.19,10.19,0,0,0-4.89-2.89,12.4,12.4,0,0,0-5.78-.26c-2,.29-3.93.74-5.94,1a17.75,17.75,0,0,1-6.17,0,9.83,9.83,0,0,1-5.4-3.11,12.64,12.64,0,0,1-2.63-5.63,20.23,20.23,0,0,1-.21-6.16,24.7,24.7,0,0,1,1.48-6c.69-1.91,1.49-3.76,2.26-5.62,1.53-3.68,3-7.47,3.07-11.4,0-1.9-.35-4-1.68-5.19S268,96.76,266,96.84a33.52,33.52,0,0,0-5.91.65,40.93,40.93,0,0,0-5.72,1.63,50.68,50.68,0,0,0-10.59,5.49c-6.67,4.42-12.3,10.22-17.68,16.16S215.56,133,209.57,138.39l-2.22,2.05-1.12,1-1.17,1-4.69,3.82-4.88,3.57c-1.63,1.19-3.35,2.25-5,3.39-6.76,4.39-13.79,8.34-20.94,12-14.31,7.38-29.06,13.85-43.27,21.37a223.3,223.3,0,0,0-20.74,12.23,111.3,111.3,0,0,0-18.45,15.36A69.09,69.09,0,0,0,73.69,234,57.61,57.61,0,0,0,70,245.42a49.18,49.18,0,0,0-.93,11.92,48,48,0,0,0,7.22,22.6,69.65,69.65,0,0,0,15.94,17.82,65.91,65.91,0,0,0,20.89,11.61,39.93,39.93,0,0,0,11.77,2,29.91,29.91,0,0,0,11.68-2.17Z"/></svg>