<svg id="Vrstva_1" data-name="Vrstva 1" xmlns="http://www.w3.org/2000/svg" viewBox="0 0 200 200"><defs><style>.cls-1{fill:#d29f7d;}</style></defs><path id="Path_567" data-name="Path 567" class="cls-1" d="M100,198.06a5.75,5.75,0,0,1-2.55-1,20.75,20.75,0,0,1-2.25-1.59,42.37,42.37,0,0,1-4.09-3.71A43.72,43.72,0,0,1,84.37,183a23,23,0,0,1-2.21-5.21,14,14,0,0,1-.49-2.87,8.66,8.66,0,0,1,.27-3,13.18,13.18,0,0,1,1.23-2.67c.38-.73.8-1.63,1.18-2.43.76-1.63,1.5-3.3,2.09-5a17.05,17.05,0,0,0,.71-2.44,5.16,5.16,0,0,0,.1-1c0-.09,0-.1,0-.15s0-.09,0-.05a.7.7,0,0,0,.14.16s.11,0,.07,0h0c-.19,0,.24,0,.16,0s-.32.05-.13,0a.31.31,0,0,0,.12-.05l0,0a4.77,4.77,0,0,0-.63.71c-.49.66-1,1.43-1.51,2.2a24.6,24.6,0,0,1-8.25,8.2,21.53,21.53,0,0,1-11.55,2.63A18.83,18.83,0,0,1,54,168.15a17,17,0,0,1-4.12-4.82,18.56,18.56,0,0,1-2.13-5.9,18.24,18.24,0,0,1-.32-3.12v-.78c0-.3,0-.62.06-.91a8.35,8.35,0,0,1,.41-1.91,5.65,5.65,0,0,1,1.3-2.13,5,5,0,0,1,2.44-1.32,5.39,5.39,0,0,1,1.2-.14h3.47l1.29,0,.68,0,.59-.07c.4-.05.78-.06,1.19-.13a22.06,22.06,0,0,0,4.72-1.25,15.14,15.14,0,0,0,4-2.38,11.28,11.28,0,0,0,2.89-3.48,12.05,12.05,0,0,0,1.41-4.33,6.64,6.64,0,0,0,.11-1.18l0-.59,0-.3v-.08c0-.13,0,.1,0,0v-.17l-.14-2.74-.36-2.36-.6-2.44-.83-2.37c-.33-.76-.7-1.52-1-2.28a25.38,25.38,0,0,0-14.8-12.67c-.8-.2-1.58-.49-2.4-.62s-1.62-.31-2.44-.35l-1.24-.06-.62,0h-.19l-.34,0-.69,0a3.11,3.11,0,0,0-.33,0l-.24.05c-.34,0-.67.11-1,.19a10.83,10.83,0,0,0-6.88,5.3,13.14,13.14,0,0,0-1.51,4.33c-.05.39-.11.77-.15,1.16l0,1.17a24,24,0,0,0,1.14,7.34,6.37,6.37,0,0,1,.08,4.37,4.41,4.41,0,0,1-1.94,2.27,5.47,5.47,0,0,1-2.46.68c-3,0-4.89-1.4-6.38-2.13-.85-.5-1.77-1.13-2.61-1.71s-1.57-1.23-2.3-1.89a42.85,42.85,0,0,1-7.43-9A48.94,48.94,0,0,1,8.07,97.77L8,94.83,8.07,92c0-.46,0-.9.07-1.39l.18-1.48c.14-1,.2-2,.42-2.93a37.17,37.17,0,0,1,3.85-11.07A31.2,31.2,0,0,1,20,65.89a30.2,30.2,0,0,1,10.45-5.67,34.26,34.26,0,0,1,11.69-1.47l1.37,0c.45,0,1,.1,1.48.16a29.3,29.3,0,0,1,3,.43,36.78,36.78,0,0,1,5.67,1.53A40.56,40.56,0,0,1,64,66.41a48.35,48.35,0,0,1,8.36,7.94l-.13-.14a52.09,52.09,0,0,1,4.3,5.5,15.47,15.47,0,0,0,1.83,2.13,3.16,3.16,0,0,0,.67.48l.06,0s0,0,0,0h0s.11,0,.06,0h-.09s-.14,0-.14,0c-.2.06-.31.23-.24.12a2.33,2.33,0,0,0,.21-.74,6,6,0,0,0,.06-1.2l0-.83L78.85,79A38.89,38.89,0,0,0,77.61,73c-1.13-4.14-2.59-8.33-3.86-12.63A78.42,78.42,0,0,1,70.8,47a33.51,33.51,0,0,1,1.13-14.18,24.9,24.9,0,0,1,1.37-3.4c.23-.47.55-1.06.83-1.57s.57-1,.86-1.51c1.18-2,2.46-3.87,3.79-5.71a98,98,0,0,1,8.74-10.44,53.11,53.11,0,0,1,5.12-4.71,25.41,25.41,0,0,1,3-2.1,12.59,12.59,0,0,1,1.85-.89,6.69,6.69,0,0,1,1.13-.35A3.55,3.55,0,0,1,99.29,2l.36,0h.27c.12,0-.14,0,.3,0a6.32,6.32,0,0,1,1,.15,4.35,4.35,0,0,1,.71.18l.53.19a12.59,12.59,0,0,1,1.85.89,25.41,25.41,0,0,1,3,2.1,53.11,53.11,0,0,1,5.12,4.71,98,98,0,0,1,8.74,10.44c1.33,1.84,2.61,3.72,3.79,5.71.6,1,1.15,2,1.68,3.08l.2.4.15.3.08.19.32.77c.21.47.42,1.1.63,1.71A32.62,32.62,0,0,1,129.19,47c-1.17,9.27-4.74,17.64-6.9,25.92A37.17,37.17,0,0,0,121.15,79c-.05.5-.07,1-.08,1.48v.72c0,.15,0,.33.05.52a3.27,3.27,0,0,0,.21.74c.08.11,0-.06-.23-.12l-.1,0s0,0,0,0h-.1l.21,0s.19,0,.12,0a.19.19,0,0,0-.15,0,3.43,3.43,0,0,0,.62-.46,16.08,16.08,0,0,0,1.83-2.13,52.09,52.09,0,0,1,4.3-5.5l-.13.14A46.92,46.92,0,0,1,138,65a38.69,38.69,0,0,1,13-5.44l1.73-.36c.58-.1,1.17-.15,1.75-.23s1.17-.15,1.75-.21l1.76-.07.88,0,.44,0h.54l1.65.07a30.11,30.11,0,0,1,3.55.39l.91.13.87.21,1.75.43c1.15.3,2.26.76,3.4,1.14s2.19,1,3.24,1.57l1.54.93.77.46c.25.17.48.36.73.54a31.38,31.38,0,0,1,9.32,10.77,38.5,38.5,0,0,1,4.1,13.44l.21,1.74c0,.58.06,1.16.09,1.74L192,94l0,.43V95l0,.83c0,1.14-.09,2.27-.22,3.4a34.52,34.52,0,0,1-.53,3.53,49.56,49.56,0,0,1-4.58,13.16A41.78,41.78,0,0,1,178.35,127a32.06,32.06,0,0,1-5.63,4.35,11.76,11.76,0,0,1-1.6.87c-.54.27-1.12.57-1.61.76a8,8,0,0,1-4.45.66,4.16,4.16,0,0,1-3.54-4.34,6.72,6.72,0,0,1,.42-2.22c.2-.55.32-1,.47-1.47a25,25,0,0,0,.93-6.08A13.73,13.73,0,0,0,159,108.92a11.43,11.43,0,0,0-5.23-2.68,12,12,0,0,0-3-.29,20.42,20.42,0,0,0-3.22.22c-.51.08-1,.12-1.53.22l-1.55.38-.77.19-.75.27-1.5.54c-.5.18-1,.45-1.45.67a12.61,12.61,0,0,0-1.42.72,25.3,25.3,0,0,0-2.69,1.75,27.83,27.83,0,0,0-8.39,9.74,29.64,29.64,0,0,0-3.32,12.6,29.89,29.89,0,0,1,2.63-12.94A28.72,28.72,0,0,1,135,109.7a26.8,26.8,0,0,1,2.76-2,16.67,16.67,0,0,1,1.48-.85c.51-.26,1-.56,1.52-.79l1.58-.66.8-.32.82-.25,1.65-.5c.56-.13,1.14-.22,1.72-.33a22.33,22.33,0,0,1,3.36-.4,15,15,0,0,1,3.6.16,14.14,14.14,0,0,1,6.56,3,16.86,16.86,0,0,1,6,12.81,28.58,28.58,0,0,1-.72,7c-.13.55-.3,1.21-.45,1.71a2.89,2.89,0,0,0-.16,1c0,.26.08.32.07.28s0,0,.2,0a4.2,4.2,0,0,0,2-.49c.53-.24.9-.48,1.35-.72a10.17,10.17,0,0,0,1.26-.78,27.84,27.84,0,0,0,4.63-4,48.35,48.35,0,0,0,7.2-10.14,41,41,0,0,0,4.17-11.72,27.5,27.5,0,0,0,.46-3,28.32,28.32,0,0,0,.21-3.19l0-.83,0-.69L187,92.51c0-.53,0-1.05-.08-1.57l-.2-1.54a33.54,33.54,0,0,0-3.55-11.72,26.34,26.34,0,0,0-7.83-9.05c-.2-.15-.39-.32-.6-.45l-.64-.39L172.77,67c-.88-.48-1.81-.87-2.72-1.31s-1.88-.71-2.86-1l-1.47-.36L165,64.2l-.72-.1a21.93,21.93,0,0,0-3-.33l-1.65-.08h-.29l-.38,0-.78,0-1.54.06-1.53.18c-.51.06-1,.11-1.53.2l-1.51.31a33.82,33.82,0,0,0-11.3,4.75,42,42,0,0,0-9.24,8.35l-.06.06-.08.09a50.81,50.81,0,0,0-3.83,5A19.06,19.06,0,0,1,125,85.56a7.4,7.4,0,0,1-2.11,1.38,7.79,7.79,0,0,1-.94.28.92.92,0,0,1-.28,0l-.21,0h-.15l-.35,0-.44,0a4.73,4.73,0,0,1-.91-.18A4.66,4.66,0,0,1,117,84.89a7.27,7.27,0,0,1-.78-2.4c0-.37-.09-.73-.11-1.13v-.43c0-.25,0-.34,0-.51,0-.62,0-1.24.1-1.84a43,43,0,0,1,1.27-6.92c1.16-4.42,2.62-8.61,3.89-12.8a73.86,73.86,0,0,0,2.89-12.48,27.53,27.53,0,0,0-.87-12,11.12,11.12,0,0,0-.51-1.4l-.32-.77-.08-.19c.09.2,0,0,0,.06l0,0,0-.09-.17-.34c-.45-.91-1-1.83-1.5-2.74-1.07-1.81-2.28-3.59-3.54-5.33a92,92,0,0,0-8.27-9.89,52.15,52.15,0,0,0-4.64-4.28c-1.56-1.23-3.4-2.45-4.47-2.44h.09a.69.69,0,0,0-.16,0,2.64,2.64,0,0,0-.45.15,6.94,6.94,0,0,0-1.13.55,20,20,0,0,0-2.41,1.68,49.42,49.42,0,0,0-4.64,4.27,90.94,90.94,0,0,0-8.27,9.9c-1.26,1.74-2.47,3.52-3.55,5.33-.27.46-.53.91-.78,1.37s-.46.84-.72,1.36a21,21,0,0,0-1.1,2.75,28.27,28.27,0,0,0-.91,12.06,73.34,73.34,0,0,0,2.76,12.51c1.24,4.18,2.69,8.35,3.9,12.74a44.2,44.2,0,0,1,1.4,6.92l.08,1,0,.83a10.63,10.63,0,0,1-.11,2.11,7.08,7.08,0,0,1-.77,2.41,4.66,4.66,0,0,1-2.67,2.24,3.53,3.53,0,0,1-.54.13l-.3,0-.14,0H79.2a1.13,1.13,0,0,1-.26,0h-.11l-.21,0a5.74,5.74,0,0,1-.83-.13l-.72-.25A7.73,7.73,0,0,1,75,85.56a21.42,21.42,0,0,1-2.51-2.87,49.63,49.63,0,0,0-3.83-5l-.08-.09,0-.06A43.94,43.94,0,0,0,61,70.42a35.55,35.55,0,0,0-9-4.8,32.21,32.21,0,0,0-4.92-1.33c-.82-.16-1.64-.29-2.47-.37-.42,0-.79-.12-1.25-.14L42,63.73A29.59,29.59,0,0,0,32,65a25.38,25.38,0,0,0-8.74,4.74A26.63,26.63,0,0,0,17,77.48a32.32,32.32,0,0,0-3.32,9.59c-.2.84-.23,1.67-.36,2.5l-.17,1.25c0,.42,0,.9-.06,1.35L13,94.81l.1,2.55a43.92,43.92,0,0,0,6.7,19.45,37.84,37.84,0,0,0,6.54,7.9c.62.57,1.3,1.06,1.94,1.6s1.25.87,2,1.31l1.21.65.61.32.42.19a3.83,3.83,0,0,0,1.59.38c.18,0,.21,0,.17,0s-.2.18-.21.23a2.33,2.33,0,0,0-.19-1,29.32,29.32,0,0,1-1.23-5.87q-.15-1.5-.15-3l.06-1.57c0-.52.13-1.05.2-1.57a18.47,18.47,0,0,1,2.1-6,15.83,15.83,0,0,1,10.06-7.69,14.1,14.1,0,0,1,1.7-.31l.43-.06a2.3,2.3,0,0,1,.36,0l.68,0,.34,0h.49l.75,0,1.51.08c1,0,2,.29,3,.43s1.95.5,2.92.75A30.41,30.41,0,0,1,74.76,118.7c.41.9.85,1.8,1.24,2.71s.68,1.87,1,2.81l.71,2.9.45,3.07.14,2.75v.49l0,.38,0,.78a10.3,10.3,0,0,1-.15,1.56,17.18,17.18,0,0,1-2,6,13.63,13.63,0,0,1-.83,1.38l-1,1.3A18.56,18.56,0,0,1,72,147.11a20.06,20.06,0,0,1-5.37,3.17,26.49,26.49,0,0,1-5.87,1.56c-.5.09-1,.12-1.54.17l-.78.08-.69,0-1.46,0H52.93l-.16,0c-.05,0,0,0,.06,0a1.72,1.72,0,0,0-.09.22,3.3,3.3,0,0,0-.15.76c0,.17,0,.3,0,.46v.6a18.49,18.49,0,0,0,.21,2.34,13.33,13.33,0,0,0,4.2,8.06A12.27,12.27,0,0,0,61,167a8.92,8.92,0,0,0,1.14.37,11.13,11.13,0,0,0,1.17.3,16.91,16.91,0,0,0,2.46.33,17.71,17.71,0,0,0,9.69-1.67,21.32,21.32,0,0,0,7.49-6.82c.55-.73,1.07-1.47,1.71-2.25a6.93,6.93,0,0,1,1.3-1.24l.25-.15a3.38,3.38,0,0,1,.44-.18,1.94,1.94,0,0,1,.53-.12h.33l.16,0,.32,0a2.34,2.34,0,0,1,1.71,1.44,2.06,2.06,0,0,1,.17.6,3.17,3.17,0,0,1,0,.53,6.87,6.87,0,0,1-.22,1.69,18.23,18.23,0,0,1-1,2.78c-.73,1.75-1.56,3.41-2.43,5.05-.45.84-.83,1.58-1.34,2.46a11.19,11.19,0,0,0-1.19,2.24,6.49,6.49,0,0,0-.33,2.4,12.18,12.18,0,0,0,.31,2.55,22.66,22.66,0,0,0,1.81,5,45.43,45.43,0,0,0,9.86,12.89,21.86,21.86,0,0,0,2.14,1.7A5.77,5.77,0,0,0,100,198.06Z"/></svg>