<svg id="Vrstva_1" data-name="Vrstva 1" xmlns="http://www.w3.org/2000/svg" viewBox="0 0 400 400"><defs><style>.cls-1{fill:#ebddd3;}.cls-2{fill:#e1d4ca;}.cls-3{fill:#bfb4ac;}.cls-4{fill:#d9b092;}.cls-5{fill:#4e4d4d;}.cls-6{fill:#c2cfe2;}</style></defs><path class="cls-1" d="M34,274.59c1.92-14.19,3.84-28.41,4.12-42.72.78-39.29-10.78-78.38-7-117.5,2.31-23.91,10-49.65-1.44-70.78,43.28-11.68,88.49,4.32,132.77,11.31a330.63,330.63,0,0,0,119.25-3c10.62-2.22,21.12-5,31.8-6.86,19.63-3.46,40.08-4.06,58.45-11.81,7.42,21.4-.37,44.65-4.22,67-2.58,15-3.35,30.26-4.11,45.47l-3,60.57c-1.92,38.29-3.84,76.67-1.71,114.94.79,14.24,2.13,28.62-.17,42.69C345,357.17,329,364,314,366.07c-15.44,2.08-31-1.12-46.45-3.23-25.66-3.5-51.62-4-77.51-4.46L89,356.52c-16.66-.31-33.42-.06-50.05-.92-16.42-.84-14.6-9.51-12.69-23.59Q30.1,303.3,34,274.59Z"/><path class="cls-2" d="M51.37,79.49c.93,11.65-1.18,23.31-2.74,34.9q-2.4,17.83-3.09,35.85c-.25,6.59-.32,13.26,1.1,19.71,2,8.91,6.66,16.93,11,25a358.55,358.55,0,0,1,32,82.42c2,7.89,3.74,15.95,7.54,23.14,3.38,6.39,8.26,11.85,13.3,17a265.39,265.39,0,0,0,34.61,30c-38.69-.37-77.44-11.21-115.66-5.2a124.22,124.22,0,0,1,2.05-25.09c1.46-7.84,3.67-15.54,4.88-23.43,1-6.47.29-12.8,1.62-19.28,1.29-6.32,3.53-12.41,5-18.68,6.73-28.32-1.09-57.19-6.19-85.08-5.33-29.16-2.79-56.24,1-85.48.67-5.13,1.38-10.34.59-15.44-.72-4.71-8-26.84,2.9-16.8C48,59.19,50.67,70.8,51.37,79.49Z"/><path class="cls-3" d="M199.4,230.44l9.18-23.5a3.26,3.26,0,0,0,.15-.44l2.19-7.88a4.6,4.6,0,0,1,6.75-2.73l112.7,66.18a4.59,4.59,0,0,1,1.15,7l-15.11,17.47a4.61,4.61,0,0,1-4.92,1.35L266.7,273a4.67,4.67,0,0,1-.82-.37l-31.16-17.68a6.49,6.49,0,0,1-.55-.36l-19.39-15a4.6,4.6,0,0,0-1.89-.87l-10.14-2.08A4.59,4.59,0,0,1,199.4,230.44Z"/><path class="cls-4" d="M224.57,121.05l18.79-18.58a4.59,4.59,0,0,1,7.74,4.13l-2.5,13.05a4.51,4.51,0,0,0-.07.53l-1,13.58a4.59,4.59,0,0,1-7.21,3.43L231.56,131a4.36,4.36,0,0,0-.82-.45L226,128.53A4.59,4.59,0,0,1,224.57,121.05Z"/><path class="cls-4" d="M166.28,286.75h-5.53a4.58,4.58,0,0,1-4.18-2.69l-33.29-73.2a4.59,4.59,0,0,1,6-6.11l56.66,24.6a4.59,4.59,0,0,1,2.48,5.79l-17.83,48.6A4.58,4.58,0,0,1,166.28,286.75Z"/><path class="cls-5" d="M57.8,327.06l-2.28-.44c3.52-18.39,14.16-34.49,23.85-48.14,17.56-24.72,37.92-49.74,66-81.12,40.45-45.16,83.66-88.79,128.43-129.67l1.57,1.71A1820.26,1820.26,0,0,0,147.13,198.91c-28,31.31-48.36,56.27-65.86,80.91C71.71,293.27,61.23,309.13,57.8,327.06Z"/><path class="cls-5" d="M238.82,341l-2.2-.75,55-162.07a169.67,169.67,0,0,0,5.57-18.73c.8-3.76,1.36-7.65,1.9-11.42.51-3.56,1-7.25,1.79-10.86,1.64-8,4.36-15.75,7-23.27l16.65-47.59,2.19.76L310.07,114.7c-2.61,7.45-5.3,15.15-6.91,23-.73,3.54-1.25,7.19-1.76,10.72-.55,3.81-1.11,7.74-1.93,11.58a172.65,172.65,0,0,1-5.64,19Z"/><path class="cls-5" d="M338.74,264.07c-87-50.64-174-103.93-258.67-158.41l1.25-2c84.61,54.46,171.61,107.74,258.58,158.35Z"/><path class="cls-5" d="M278.29,328.11c-14.33-4-28.49-9.72-42.19-15.23-24.2-9.73-49.22-19.8-75.51-20.63-1.67-.06-3.55-.12-5-1.18a8.16,8.16,0,0,1-2.21-3.05,997.87,997.87,0,0,1-52.34-123.67l-.13-.37.38-.12c10.23-3.35,17.56-12.62,23.46-20.07L169,88l.6.48-44.2,55.82c-5.89,7.44-13.21,16.68-23.46,20.2a995.67,995.67,0,0,0,52.17,123.2,7.62,7.62,0,0,0,2,2.78c1.23.92,2.91,1,4.53,1,26.43.84,51.52,10.94,75.78,20.7,13.68,5.5,27.82,11.19,42.11,15.19Z"/><path class="cls-5" d="M292.69,175.19c-4.88-4-9.92-8.14-15.6-11.1-1.55-.81-3.18-1.54-4.75-2.25a67.15,67.15,0,0,1-6.59-3.26,68.13,68.13,0,0,1-6.83-4.83c-1.6-1.23-3.24-2.5-4.93-3.63-2.47-1.65-5.14-3.07-7.72-4.45-1.8-1-3.67-2-5.47-3-2.29-1.37-4.53-2.9-6.69-4.38-2.38-1.63-4.85-3.31-7.38-4.78-5.75-3.33-10.87-4.88-15.67-4.74l0-.77c5-.15,10.2,1.44,16.08,4.84,2.56,1.48,5,3.17,7.43,4.81,2.15,1.47,4.38,3,6.65,4.35,1.78,1.07,3.64,2.06,5.44,3a89.36,89.36,0,0,1,7.78,4.49c1.71,1.14,3.37,2.42,5,3.65a64.75,64.75,0,0,0,6.76,4.78,66.49,66.49,0,0,0,6.5,3.22c1.59.72,3.23,1.46,4.8,2.27,5.75,3,10.82,7.16,15.73,11.19Z"/><path class="cls-5" d="M152.81,150.44l-.17-.76c15.8-3.52,31.84-7,47.66-10.44l.17.75C184.65,143.4,168.61,146.92,152.81,150.44Z"/><path class="cls-5" d="M222.47,116.61c-11.77-6.86-23.94-14-36.9-18.86L184,97.16a50.93,50.93,0,0,1-7.71-3.35,50.49,50.49,0,0,1-7-5.2l.49-.6a50.05,50.05,0,0,0,7,5.13,50.05,50.05,0,0,0,7.59,3.3l1.57.58c13,4.93,25.22,12,37,18.92Z"/><path class="cls-5" d="M158.17,328.87l-.76-.13c1.28-7.33,5-13.94,8.54-20.35a118.25,118.25,0,0,0,5.74-11.21,119.54,119.54,0,0,0,4.18-12.3l.78-2.62c4.26-14,9.69-27.86,14.95-41.27,6.81-17.34,13.84-35.28,18.36-53.64l.75.18c-4.53,18.42-11.58,36.38-18.39,53.74-5.25,13.39-10.68,27.24-14.93,41.22l-.78,2.61a118.16,118.16,0,0,1-4.21,12.39,120.94,120.94,0,0,1-5.78,11.28C163.09,315.12,159.43,321.68,158.17,328.87Z"/><path class="cls-5" d="M310.25,291.2a290,290,0,0,1-87.87-39.09l-1.55-1c-5.18-3.45-10.54-7-16.53-8.75-1.45-.41-3-.73-4.43-1a37.26,37.26,0,0,1-7.25-2l.3-.71a37.15,37.15,0,0,0,7.11,2c1.48.31,3,.62,4.48,1.05,6.11,1.76,11.52,5.36,16.75,8.84l1.55,1a289.65,289.65,0,0,0,87.63,39Z"/><path class="cls-5" d="M195.76,229.86c-8.56-4.37-17.42-8.88-26.35-12.87-8.07-3.6-16.44-6.89-24.54-10.06l-13-5.1C127,199.93,122,198,117,196.28c-3.36-1.12-7-2.22-11.81-3.56a490.11,490.11,0,0,0-49.06-11l.13-.76a491.67,491.67,0,0,1,49.14,11c4.82,1.35,8.48,2.45,11.85,3.58,5,1.69,10.05,3.66,14.91,5.56l13,5.09c8.12,3.19,16.5,6.47,24.59,10.09,9,4,17.81,8.51,26.38,12.88Z"/><path class="cls-5" d="M302,136.36l-47.84-29.9c-3.7-2.31-7.88-4.92-12.48-5.55l.1-.77c4.77.65,9,3.32,12.79,5.67l47.84,29.89Z"/><path class="cls-5" d="M244.2,206.75l-.77-.06L248,151.31c.53-6.48,1.09-13.17,2-19.71.64-4.34,1.47-8.73,2.27-13,2-10.66,4.09-21.68,3.25-32.6l.77-.06c.85,11-1.24,22.09-3.26,32.8-.8,4.24-1.63,8.63-2.26,13-.95,6.52-1.51,13.2-2,19.66Z"/><path class="cls-3" d="M115.08,189.32l-7.19-20.25a3.93,3.93,0,0,1,1.16-4.3c4.64-3.92,15.82-13.5,20.36-18.52a3.93,3.93,0,0,1,4.84-.8c7.62,4.3,23.52,13.71,31.08,18.19a3.92,3.92,0,0,1,.88,6L140.06,198a3.92,3.92,0,0,1-4.33,1l-18.41-7.35A3.9,3.9,0,0,1,115.08,189.32Z"/><path class="cls-3" d="M188,161.12l24.16-26a4.59,4.59,0,0,1,5.61-.88l23.52,13.23a4.61,4.61,0,0,1,2.33,4.36l-3,38.74a4.59,4.59,0,0,1-6.88,3.62l-44.71-26A4.59,4.59,0,0,1,188,161.12Z"/><path class="cls-6" d="M151.13,145.38l-10.81-6.59a4.6,4.6,0,0,1-1.15-6.84l28.07-34.09a4.59,4.59,0,0,1,5.46-1.25l37.16,17.08a4.6,4.6,0,0,1,1.52,7.22l-12.4,14a4.53,4.53,0,0,1-2.42,1.43l-42,9.58A4.53,4.53,0,0,1,151.13,145.38Z"/><path class="cls-4" d="M167.27,150.79l17.51-3.43a1.36,1.36,0,0,1,1.14,2.37l-8.72,7.35a1.36,1.36,0,0,1-1.42.2L167,153.36A1.36,1.36,0,0,1,167.27,150.79Z"/><path class="cls-6" d="M205.62,192.52l-8.19,26.77a4.59,4.59,0,0,1-6.19,2.88L153.7,206.26a4.59,4.59,0,0,1-1.56-7.36l22.55-24.13a4.59,4.59,0,0,1,5.64-.85l23.18,13.28A4.58,4.58,0,0,1,205.62,192.52Z"/><path class="cls-4" d="M250.26,159.23,247.73,201a4.58,4.58,0,0,0,2.15,4.17l19.69,12.31a4.58,4.58,0,0,0,6.81-2.53l11.39-36.61a4.6,4.6,0,0,0-2-5.28l-28.54-17.44A4.6,4.6,0,0,0,250.26,159.23Z"/><path class="cls-6" d="M252,141.9,255.17,118a4.59,4.59,0,0,1,7.06-3.23L294.72,136a4.58,4.58,0,0,1,2,4.74L292.3,163a4.6,4.6,0,0,1-6.94,3l-31.29-19.54A4.6,4.6,0,0,1,252,141.9Z"/><path class="cls-6" d="M245.27,306.89l7.68-28a4.58,4.58,0,0,0-2.09-5.16l-30.75-18.13a4.18,4.18,0,0,1-.72-.53l-4.39-3.9a21.39,21.39,0,0,0-9.07-4.76l-7.64-1.87a4.6,4.6,0,0,0-5.46,3l-12,36.61a4.58,4.58,0,0,0,3.22,5.87l29.4,7.56a4.19,4.19,0,0,1,.86.31l24.49,11.9A4.59,4.59,0,0,0,245.27,306.89Z"/></svg>